<svg xmlns="http://www.w3.org/2000/svg" xmlns:xlink="http://www.w3.org/1999/xlink" width="500" zoomAndPan="magnify" viewBox="0 0 375 374.999991" height="500" preserveAspectRatio="xMidYMid meet" version="1.0"><defs><clipPath id="6a7fbe74c3"><path d="M 177.78125 139.605469 L 232 139.605469 L 232 224.238281 L 177.78125 224.238281 Z M 177.78125 139.605469 " clip-rule="nonzero"/></clipPath><clipPath id="c0c8e1c559"><path d="M 229.949219 172.125 C 225.976562 184.125 226.648438 194.925781 226.125 200.175781 C 225.75 203.398438 225.675781 205.425781 224.851562 207.898438 C 224.023438 210.300781 222.75 212.699219 221.175781 214.726562 C 219.601562 216.75 217.648438 218.699219 215.550781 220.125 C 213.375 221.550781 210.898438 222.675781 208.425781 223.351562 C 205.949219 224.023438 203.25 224.324219 200.699219 224.175781 C 198.148438 224.023438 195.523438 223.5 193.125 222.523438 C 190.726562 221.550781 188.398438 220.125 186.449219 218.476562 C 184.5 216.824219 182.699219 214.726562 181.425781 212.550781 C 180.074219 210.375 179.101562 207.824219 178.5 205.351562 C 177.976562 202.800781 177.824219 200.101562 178.125 197.550781 C 178.425781 195 179.101562 192.375 180.226562 190.050781 C 181.273438 187.726562 182.851562 185.476562 184.574219 183.601562 C 186.375 181.726562 188.550781 180.074219 190.800781 178.875 C 193.050781 177.675781 195.675781 176.851562 198.148438 176.398438 C 200.699219 176.023438 203.398438 176.023438 205.949219 176.398438 C 208.5 176.851562 211.050781 177.75 213.300781 178.949219 C 215.625 180.148438 217.726562 181.800781 219.523438 183.675781 C 221.25 185.476562 222.824219 187.800781 223.875 190.125 C 224.925781 192.449219 225.675781 195.074219 225.976562 197.625 C 226.199219 200.175781 226.050781 202.875 225.523438 205.351562 C 225 207.898438 223.949219 210.375 222.675781 212.625 C 221.324219 214.800781 219.523438 216.898438 217.574219 218.550781 C 215.625 220.199219 213.300781 221.625 210.898438 222.523438 C 208.574219 223.5 205.875 224.101562 203.324219 224.175781 C 200.773438 224.324219 198.074219 224.023438 195.601562 223.351562 C 193.125 222.675781 190.648438 221.476562 188.550781 220.050781 C 186.375 218.625 184.425781 216.75 182.851562 214.726562 C 181.351562 212.699219 180.074219 210.226562 179.25 207.824219 C 178.425781 205.425781 178.125 203.175781 177.976562 200.175781 C 177.824219 195.976562 178.351562 190.726562 179.101562 185.101562 C 180.148438 177.824219 182.101562 167.023438 184.425781 160.425781 C 186.074219 155.699219 188.398438 151.574219 190.425781 148.800781 C 191.699219 147 192.898438 146.023438 194.324219 144.824219 C 195.75 143.699219 197.398438 142.726562 199.050781 141.898438 C 200.699219 141.148438 202.5 140.550781 204.375 140.175781 C 206.175781 139.875 208.050781 139.726562 209.925781 139.800781 C 211.726562 139.875 213.601562 140.25 215.398438 140.773438 C 217.125 141.300781 218.925781 142.050781 220.5 143.023438 C 222.074219 143.925781 223.574219 145.125 224.925781 146.398438 C 226.273438 147.675781 227.398438 149.175781 228.375 150.75 C 229.351562 152.324219 230.175781 154.050781 230.773438 155.773438 C 231.300781 157.574219 231.675781 159.449219 231.824219 161.25 C 231.898438 163.125 231.824219 165 231.523438 166.800781 C 231.226562 168.675781 229.949219 172.199219 229.949219 172.199219 " clip-rule="nonzero"/></clipPath><clipPath id="b8494517ad"><path d="M 0.78125 0.679688 L 55 0.679688 L 55 85.238281 L 0.78125 85.238281 Z M 0.78125 0.679688 " clip-rule="nonzero"/></clipPath><clipPath id="faf6196af1"><path d="M 52.949219 33.125 C 48.976562 45.125 49.648438 55.925781 49.125 61.175781 C 48.75 64.398438 48.675781 66.425781 47.851562 68.898438 C 47.023438 71.300781 45.75 73.699219 44.175781 75.726562 C 42.601562 77.75 40.648438 79.699219 38.550781 81.125 C 36.375 82.550781 33.898438 83.675781 31.425781 84.351562 C 28.949219 85.023438 26.25 85.324219 23.699219 85.175781 C 21.148438 85.023438 18.523438 84.5 16.125 83.523438 C 13.726562 82.550781 11.398438 81.125 9.449219 79.476562 C 7.5 77.824219 5.699219 75.726562 4.425781 73.550781 C 3.074219 71.375 2.101562 68.824219 1.5 66.351562 C 0.976562 63.800781 0.824219 61.101562 1.125 58.550781 C 1.425781 56 2.101562 53.375 3.226562 51.050781 C 4.273438 48.726562 5.851562 46.476562 7.574219 44.601562 C 9.375 42.726562 11.550781 41.074219 13.800781 39.875 C 16.050781 38.675781 18.675781 37.851562 21.148438 37.398438 C 23.699219 37.023438 26.398438 37.023438 28.949219 37.398438 C 31.5 37.851562 34.050781 38.75 36.300781 39.949219 C 38.625 41.148438 40.726562 42.800781 42.523438 44.675781 C 44.25 46.476562 45.824219 48.800781 46.875 51.125 C 47.925781 53.449219 48.675781 56.074219 48.976562 58.625 C 49.199219 61.175781 49.050781 63.875 48.523438 66.351562 C 48 68.898438 46.949219 71.375 45.675781 73.625 C 44.324219 75.800781 42.523438 77.898438 40.574219 79.550781 C 38.625 81.199219 36.300781 82.625 33.898438 83.523438 C 31.574219 84.5 28.875 85.101562 26.324219 85.175781 C 23.773438 85.324219 21.074219 85.023438 18.601562 84.351562 C 16.125 83.675781 13.648438 82.476562 11.550781 81.050781 C 9.375 79.625 7.425781 77.75 5.851562 75.726562 C 4.351562 73.699219 3.074219 71.226562 2.25 68.824219 C 1.425781 66.425781 1.125 64.175781 0.976562 61.175781 C 0.824219 56.976562 1.351562 51.726562 2.101562 46.101562 C 3.148438 38.824219 5.101562 28.023438 7.425781 21.425781 C 9.074219 16.699219 11.398438 12.574219 13.425781 9.800781 C 14.699219 8 15.898438 7.023438 17.324219 5.824219 C 18.75 4.699219 20.398438 3.726562 22.050781 2.898438 C 23.699219 2.148438 25.5 1.550781 27.375 1.175781 C 29.175781 0.875 31.050781 0.726562 32.925781 0.800781 C 34.726562 0.875 36.601562 1.25 38.398438 1.773438 C 40.125 2.300781 41.925781 3.050781 43.5 4.023438 C 45.074219 4.925781 46.574219 6.125 47.925781 7.398438 C 49.273438 8.675781 50.398438 10.175781 51.375 11.75 C 52.351562 13.324219 53.175781 15.050781 53.773438 16.773438 C 54.300781 18.574219 54.675781 20.449219 54.824219 22.25 C 54.898438 24.125 54.824219 26 54.523438 27.800781 C 54.226562 29.675781 52.949219 33.199219 52.949219 33.199219 " clip-rule="nonzero"/></clipPath><clipPath id="a533e14694"><rect x="0" width="55" y="0" height="86"/></clipPath><clipPath id="5e9a8a5140"><path d="M 152.210938 128.082031 L 197.164062 128.082031 L 197.164062 173.839844 L 152.210938 173.839844 Z M 152.210938 128.082031 " clip-rule="nonzero"/></clipPath><clipPath id="5bc52b9e7b"><path d="M 197.023438 144.148438 C 197.023438 158.550781 195.375 162.300781 193.199219 165.074219 C 191.023438 167.851562 187.800781 170.398438 184.574219 171.824219 C 181.351562 173.25 177.375 174 173.851562 173.773438 C 170.25 173.625 166.425781 172.351562 163.351562 170.550781 C 160.351562 168.675781 157.425781 165.824219 155.625 162.824219 C 153.824219 159.75 152.550781 155.851562 152.398438 152.324219 C 152.175781 148.800781 152.851562 144.824219 154.351562 141.601562 C 155.773438 138.375 158.324219 135.148438 161.101562 132.976562 C 163.875 130.800781 167.625 129.074219 171.074219 128.476562 C 174.601562 127.800781 178.648438 128.101562 182.023438 129.148438 C 185.398438 130.199219 191.398438 134.773438 191.398438 134.773438 " clip-rule="nonzero"/></clipPath><clipPath id="260e98d24e"><path d="M 0.210938 0.0820312 L 45.039062 0.0820312 L 45.039062 45.839844 L 0.210938 45.839844 Z M 0.210938 0.0820312 " clip-rule="nonzero"/></clipPath><clipPath id="8f8a1a7604"><path d="M 45.023438 16.148438 C 45.023438 30.550781 43.375 34.300781 41.199219 37.074219 C 39.023438 39.851562 35.800781 42.398438 32.574219 43.824219 C 29.351562 45.25 25.375 46 21.851562 45.773438 C 18.25 45.625 14.425781 44.351562 11.351562 42.550781 C 8.351562 40.675781 5.425781 37.824219 3.625 34.824219 C 1.824219 31.75 0.550781 27.851562 0.398438 24.324219 C 0.175781 20.800781 0.851562 16.824219 2.351562 13.601562 C 3.773438 10.375 6.324219 7.148438 9.101562 4.976562 C 11.875 2.800781 15.625 1.074219 19.074219 0.476562 C 22.601562 -0.199219 26.648438 0.101562 30.023438 1.148438 C 33.398438 2.199219 39.398438 6.773438 39.398438 6.773438 " clip-rule="nonzero"/></clipPath><clipPath id="a07181cde9"><rect x="0" width="46" y="0" height="46"/></clipPath><clipPath id="cd30f1794b"><path d="M 140 124.203125 L 233.398438 124.203125 L 233.398438 227.300781 L 140 227.300781 Z M 140 124.203125 " clip-rule="nonzero"/></clipPath><clipPath id="9f67c138db"><path d="M 140.25 153.976562 C 140.324219 149.625 140.398438 147.523438 140.398438 147.449219 C 140.398438 147.449219 141 145.351562 141.300781 144.375 C 141.523438 143.324219 142.125 141.226562 142.125 141.226562 C 142.125 141.148438 143.175781 139.351562 143.699219 138.375 C 144.226562 137.398438 145.273438 135.601562 145.273438 135.523438 C 145.273438 135.523438 146.773438 133.949219 147.523438 133.199219 C 148.199219 132.375 149.699219 130.800781 149.699219 130.800781 C 149.699219 130.800781 151.5 129.601562 152.398438 129 C 153.300781 128.398438 155.101562 127.273438 155.101562 127.273438 C 155.175781 127.199219 157.199219 126.523438 158.175781 126.148438 C 159.226562 125.851562 161.175781 125.101562 161.25 125.101562 C 161.324219 125.101562 163.425781 124.875 164.476562 124.800781 C 165.523438 124.726562 167.699219 124.5 167.699219 124.5 C 167.773438 124.5 169.875 124.800781 170.925781 124.949219 C 171.976562 125.101562 174.074219 125.398438 174.148438 125.398438 C 174.148438 125.476562 176.101562 126.226562 177.148438 126.675781 C 178.125 127.050781 180.074219 127.875 180.148438 127.875 C 180.148438 127.875 181.875 129.148438 182.773438 129.824219 C 183.601562 130.425781 185.324219 131.699219 185.398438 131.699219 C 185.398438 131.699219 185.699219 132.300781 186.074219 132.523438 C 186.898438 132.976562 189.976562 133.648438 190.648438 133.199219 C 191.023438 132.976562 190.574219 132.375 190.949219 132 C 192.449219 130.425781 207.523438 126.976562 207.601562 126.898438 C 207.675781 126.898438 209.625 127.125 210.601562 127.273438 C 211.648438 127.351562 213.601562 127.574219 213.675781 127.648438 C 213.675781 127.648438 215.550781 128.324219 216.449219 128.699219 C 217.425781 129 219.300781 129.75 219.300781 129.75 C 219.375 129.75 220.949219 130.875 221.851562 131.476562 C 222.675781 132 224.25 133.125 224.324219 133.125 C 224.324219 133.199219 225.675781 134.625 226.351562 135.375 C 227.023438 136.125 228.300781 137.625 228.375 137.625 C 228.375 137.699219 229.5 139.726562 229.800781 140.324219 C 229.949219 140.625 230.101562 141 230.101562 141 C 230.101562 141 230.175781 140.925781 230.175781 140.925781 C 230.175781 140.925781 230.175781 141 230.175781 141.074219 C 230.25 141.300781 231.148438 142.949219 231.226562 143.023438 C 231.226562 143.023438 231.675781 144.976562 231.976562 145.949219 C 232.199219 146.925781 232.648438 148.800781 232.648438 148.875 C 232.648438 148.875 232.726562 150.898438 232.726562 151.875 C 232.726562 152.925781 232.726562 154.875 232.726562 154.949219 C 232.726562 154.949219 232.199219 156.375 232.125 157.5 C 231.976562 159.449219 233.175781 162.226562 233.023438 165.601562 C 232.800781 171.375 227.699219 185.25 228.226562 188.925781 C 228.449219 190.199219 229.574219 191.324219 229.648438 191.398438 C 229.648438 191.398438 230.175781 193.351562 230.476562 194.398438 C 230.699219 195.375 231.300781 197.398438 231.300781 197.398438 C 231.300781 197.476562 231.375 199.5 231.375 200.550781 C 231.449219 201.601562 231.523438 203.625 231.449219 203.625 C 231.449219 203.699219 231.449219 203.699219 231.449219 203.699219 C 231.449219 203.699219 231.074219 205.726562 230.851562 206.699219 C 230.625 207.75 230.175781 209.773438 230.175781 209.773438 C 230.175781 209.851562 229.273438 211.648438 228.824219 212.625 C 228.375 213.523438 227.476562 215.398438 227.398438 215.398438 C 227.398438 215.476562 226.125 217.050781 225.449219 217.800781 C 224.773438 218.625 223.425781 220.199219 223.425781 220.199219 C 223.425781 220.273438 221.773438 221.476562 220.875 222.074219 C 220.050781 222.675781 218.398438 223.949219 218.398438 223.949219 C 218.324219 223.949219 216.449219 224.699219 215.476562 225.148438 C 214.5 225.523438 212.625 226.351562 212.625 226.351562 C 212.550781 226.351562 210.523438 226.648438 209.476562 226.800781 C 208.5 226.949219 206.476562 227.25 206.398438 227.25 C 206.398438 227.25 204.300781 227.101562 203.324219 227.023438 C 202.273438 226.875 200.175781 226.726562 200.175781 226.726562 C 200.023438 226.648438 187.648438 219.074219 185.773438 219.074219 C 185.324219 219.074219 185.25 219.375 184.949219 219.601562 C 184.574219 219.824219 184.351562 220.273438 183.898438 220.648438 C 183.226562 221.101562 182.023438 221.398438 181.199219 221.851562 C 180.300781 222.300781 179.398438 223.125 178.648438 223.425781 C 178.125 223.574219 177.601562 223.574219 177.148438 223.726562 C 176.699219 223.875 176.398438 224.175781 175.800781 224.324219 C 175.050781 224.550781 173.851562 224.476562 172.875 224.625 C 171.898438 224.851562 170.773438 225.226562 169.949219 225.300781 C 169.425781 225.300781 168.976562 225.148438 168.449219 225.148438 C 168 225.148438 167.550781 225.300781 167.023438 225.300781 C 166.199219 225.226562 165.074219 224.851562 164.101562 224.625 C 163.125 224.476562 161.925781 224.550781 161.175781 224.324219 C 160.574219 224.175781 160.273438 223.875 159.824219 223.726562 C 159.300781 223.574219 158.851562 223.574219 158.324219 223.425781 C 157.574219 223.125 156.675781 222.300781 155.773438 221.851562 C 154.949219 221.398438 153.75 221.101562 153.074219 220.574219 C 152.625 220.273438 152.398438 219.898438 152.023438 219.601562 C 151.648438 219.300781 151.199219 219.226562 150.75 218.851562 C 150.148438 218.324219 149.476562 217.273438 148.800781 216.523438 C 148.125 215.851562 147.148438 215.175781 146.699219 214.5 C 146.324219 214.050781 146.25 213.601562 145.949219 213.226562 C 145.726562 212.773438 145.273438 212.550781 144.976562 212.023438 C 144.601562 211.351562 144.300781 210.226562 143.925781 209.324219 C 143.476562 208.425781 142.800781 207.449219 142.5 206.699219 C 142.351562 206.101562 142.425781 205.648438 142.273438 205.199219 C 142.125 204.75 141.824219 204.375 141.75 203.851562 C 141.523438 203.023438 141.675781 201.824219 141.601562 200.851562 C 141.449219 199.875 141.074219 198.75 141.074219 197.925781 C 141.074219 197.324219 141.300781 196.875 141.300781 196.351562 C 141.375 195.898438 141.226562 195.449219 141.226562 195 C 141.300781 194.324219 141.675781 193.800781 141.824219 192.75 C 142.351562 190.574219 142.726562 185.398438 143.476562 182.101562 C 144.074219 179.175781 145.574219 176.925781 145.875 174 C 146.101562 170.699219 145.648438 165.675781 144.523438 163.273438 C 143.851562 161.851562 141.675781 160.351562 141.675781 160.273438 C 141.601562 160.273438 141.675781 160.273438 141.601562 160.273438 C 141.601562 160.273438 141.148438 158.175781 140.925781 157.125 C 140.699219 156.074219 140.25 153.976562 140.25 153.976562 " clip-rule="nonzero"/></clipPath><clipPath id="30e0558cfd"><path d="M 0.160156 0.320312 L 93.28125 0.320312 L 93.28125 103.28125 L 0.160156 103.28125 Z M 0.160156 0.320312 " clip-rule="nonzero"/></clipPath><clipPath id="bd1b9bdc4b"><path d="M 0.25 29.976562 C 0.324219 25.625 0.398438 23.523438 0.398438 23.449219 C 0.398438 23.449219 1 21.351562 1.300781 20.375 C 1.523438 19.324219 2.125 17.226562 2.125 17.226562 C 2.125 17.148438 3.175781 15.351562 3.699219 14.375 C 4.226562 13.398438 5.273438 11.601562 5.273438 11.523438 C 5.273438 11.523438 6.773438 9.949219 7.523438 9.199219 C 8.199219 8.375 9.699219 6.800781 9.699219 6.800781 C 9.699219 6.800781 11.5 5.601562 12.398438 5 C 13.300781 4.398438 15.101562 3.273438 15.101562 3.273438 C 15.175781 3.199219 17.199219 2.523438 18.175781 2.148438 C 19.226562 1.851562 21.175781 1.101562 21.25 1.101562 C 21.324219 1.101562 23.425781 0.875 24.476562 0.800781 C 25.523438 0.726562 27.699219 0.5 27.699219 0.5 C 27.773438 0.5 29.875 0.800781 30.925781 0.949219 C 31.976562 1.101562 34.074219 1.398438 34.148438 1.398438 C 34.148438 1.476562 36.101562 2.226562 37.148438 2.675781 C 38.125 3.050781 40.074219 3.875 40.148438 3.875 C 40.148438 3.875 41.875 5.148438 42.773438 5.824219 C 43.601562 6.425781 45.324219 7.699219 45.398438 7.699219 C 45.398438 7.699219 45.699219 8.300781 46.074219 8.523438 C 46.898438 8.976562 49.976562 9.648438 50.648438 9.199219 C 51.023438 8.976562 50.574219 8.375 50.949219 8 C 52.449219 6.425781 67.523438 2.976562 67.601562 2.898438 C 67.675781 2.898438 69.625 3.125 70.601562 3.273438 C 71.648438 3.351562 73.601562 3.574219 73.675781 3.648438 C 73.675781 3.648438 75.550781 4.324219 76.449219 4.699219 C 77.425781 5 79.300781 5.75 79.300781 5.75 C 79.375 5.75 80.949219 6.875 81.851562 7.476562 C 82.675781 8 84.25 9.125 84.324219 9.125 C 84.324219 9.199219 85.675781 10.625 86.351562 11.375 C 87.023438 12.125 88.300781 13.625 88.375 13.625 C 88.375 13.699219 89.5 15.726562 89.800781 16.324219 C 89.949219 16.625 90.101562 17 90.101562 17 C 90.101562 17 90.175781 16.925781 90.175781 16.925781 C 90.175781 16.925781 90.175781 17 90.175781 17.074219 C 90.25 17.300781 91.148438 18.949219 91.226562 19.023438 C 91.226562 19.023438 91.675781 20.976562 91.976562 21.949219 C 92.199219 22.925781 92.648438 24.800781 92.648438 24.875 C 92.648438 24.875 92.726562 26.898438 92.726562 27.875 C 92.726562 28.925781 92.726562 30.875 92.726562 30.949219 C 92.726562 30.949219 92.199219 32.375 92.125 33.5 C 91.976562 35.449219 93.175781 38.226562 93.023438 41.601562 C 92.800781 47.375 87.699219 61.25 88.226562 64.925781 C 88.449219 66.199219 89.574219 67.324219 89.648438 67.398438 C 89.648438 67.398438 90.175781 69.351562 90.476562 70.398438 C 90.699219 71.375 91.300781 73.398438 91.300781 73.398438 C 91.300781 73.476562 91.375 75.5 91.375 76.550781 C 91.449219 77.601562 91.523438 79.625 91.449219 79.625 C 91.449219 79.699219 91.449219 79.699219 91.449219 79.699219 C 91.449219 79.699219 91.074219 81.726562 90.851562 82.699219 C 90.625 83.75 90.175781 85.773438 90.175781 85.773438 C 90.175781 85.851562 89.273438 87.648438 88.824219 88.625 C 88.375 89.523438 87.476562 91.398438 87.398438 91.398438 C 87.398438 91.476562 86.125 93.050781 85.449219 93.800781 C 84.773438 94.625 83.425781 96.199219 83.425781 96.199219 C 83.425781 96.273438 81.773438 97.476562 80.875 98.074219 C 80.050781 98.675781 78.398438 99.949219 78.398438 99.949219 C 78.324219 99.949219 76.449219 100.699219 75.476562 101.148438 C 74.5 101.523438 72.625 102.351562 72.625 102.351562 C 72.550781 102.351562 70.523438 102.648438 69.476562 102.800781 C 68.5 102.949219 66.476562 103.25 66.398438 103.25 C 66.398438 103.25 64.300781 103.101562 63.324219 103.023438 C 62.273438 102.875 60.175781 102.726562 60.175781 102.726562 C 60.023438 102.648438 47.648438 95.074219 45.773438 95.074219 C 45.324219 95.074219 45.25 95.375 44.949219 95.601562 C 44.574219 95.824219 44.351562 96.273438 43.898438 96.648438 C 43.226562 97.101562 42.023438 97.398438 41.199219 97.851562 C 40.300781 98.300781 39.398438 99.125 38.648438 99.425781 C 38.125 99.574219 37.601562 99.574219 37.148438 99.726562 C 36.699219 99.875 36.398438 100.175781 35.800781 100.324219 C 35.050781 100.550781 33.851562 100.476562 32.875 100.625 C 31.898438 100.851562 30.773438 101.226562 29.949219 101.300781 C 29.425781 101.300781 28.976562 101.148438 28.449219 101.148438 C 28 101.148438 27.550781 101.300781 27.023438 101.300781 C 26.199219 101.226562 25.074219 100.851562 24.101562 100.625 C 23.125 100.476562 21.925781 100.550781 21.175781 100.324219 C 20.574219 100.175781 20.273438 99.875 19.824219 99.726562 C 19.300781 99.574219 18.851562 99.574219 18.324219 99.425781 C 17.574219 99.125 16.675781 98.300781 15.773438 97.851562 C 14.949219 97.398438 13.75 97.101562 13.074219 96.574219 C 12.625 96.273438 12.398438 95.898438 12.023438 95.601562 C 11.648438 95.300781 11.199219 95.226562 10.75 94.851562 C 10.148438 94.324219 9.476562 93.273438 8.800781 92.523438 C 8.125 91.851562 7.148438 91.175781 6.699219 90.5 C 6.324219 90.050781 6.25 89.601562 5.949219 89.226562 C 5.726562 88.773438 5.273438 88.550781 4.976562 88.023438 C 4.601562 87.351562 4.300781 86.226562 3.925781 85.324219 C 3.476562 84.425781 2.800781 83.449219 2.5 82.699219 C 2.351562 82.101562 2.425781 81.648438 2.273438 81.199219 C 2.125 80.75 1.824219 80.375 1.75 79.851562 C 1.523438 79.023438 1.675781 77.824219 1.601562 76.851562 C 1.449219 75.875 1.074219 74.75 1.074219 73.925781 C 1.074219 73.324219 1.300781 72.875 1.300781 72.351562 C 1.375 71.898438 1.226562 71.449219 1.226562 71 C 1.300781 70.324219 1.675781 69.800781 1.824219 68.75 C 2.351562 66.574219 2.726562 61.398438 3.476562 58.101562 C 4.074219 55.175781 5.574219 52.925781 5.875 50 C 6.101562 46.699219 5.648438 41.675781 4.523438 39.273438 C 3.851562 37.851562 1.675781 36.351562 1.675781 36.273438 C 1.601562 36.273438 1.675781 36.273438 1.601562 36.273438 C 1.601562 36.273438 1.148438 34.175781 0.925781 33.125 C 0.699219 32.074219 0.25 29.976562 0.25 29.976562 " clip-rule="nonzero"/></clipPath><clipPath id="72fa5c6a07"><rect x="0" width="94" y="0" height="104"/></clipPath><clipPath id="afa53d46a6"><path d="M 145.421875 129 L 230.78125 129 L 230.78125 245.652344 L 145.421875 245.652344 Z M 145.421875 129 " clip-rule="nonzero"/></clipPath><clipPath id="9c5367a9a7"><path d="M 190.425781 142.425781 C 183.675781 136.574219 187.574219 138.226562 188.925781 137.398438 C 190.351562 136.574219 190.050781 132.375 191.476562 131.925781 C 193.199219 131.398438 197.101562 134.324219 199.199219 136.199219 C 201.148438 138 202.574219 140.550781 203.773438 142.875 C 204.898438 145.125 205.574219 146.476562 206.25 149.699219 C 207.824219 156.824219 208.800781 173.773438 209.101562 184.726562 C 209.398438 194.324219 208.425781 204.675781 208.574219 211.949219 C 208.648438 216.824219 207.375 220.949219 209.324219 224.175781 C 211.425781 227.773438 221.476562 229.800781 221.625 232.050781 C 221.773438 233.476562 218.476562 236.25 217.5 235.875 C 215.324219 234.976562 215.324219 214.949219 216.148438 210.898438 C 216.449219 209.550781 216.898438 209.023438 217.5 208.273438 C 218.101562 207.601562 218.925781 206.925781 219.898438 206.550781 C 221.101562 206.175781 223.050781 206.101562 224.25 206.476562 C 225.226562 206.773438 226.050781 207.300781 226.726562 208.125 C 227.476562 209.101562 228.074219 210.300781 228.300781 212.175781 C 228.824219 215.625 227.550781 224.773438 226.574219 227.699219 C 226.125 228.976562 225.824219 229.574219 225.074219 230.25 C 224.175781 231.074219 222.375 231.898438 221.175781 232.125 C 220.125 232.273438 219.226562 232.050781 218.25 231.601562 C 217.199219 231.074219 215.773438 229.726562 215.175781 228.601562 C 214.648438 227.699219 214.425781 225.824219 214.574219 225.75 C 214.875 225.675781 217.949219 230.175781 217.5 230.699219 C 217.050781 231.226562 211.273438 229.273438 211.199219 228.375 C 211.125 227.550781 214.949219 225.148438 216.375 225.523438 C 217.875 225.898438 218.175781 229.875 219.898438 230.699219 C 221.699219 231.675781 225.449219 229.574219 227.101562 230.550781 C 228.523438 231.300781 229.050781 233.699219 229.648438 235.199219 C 230.175781 236.550781 230.550781 237.976562 230.550781 239.175781 C 230.625 240.226562 230.398438 241.199219 230.023438 242.101562 C 229.574219 242.925781 228.976562 243.824219 228.148438 244.351562 C 227.101562 245.101562 225.226562 245.625 223.949219 245.625 C 222.898438 245.625 221.925781 245.25 221.101562 244.726562 C 220.273438 244.199219 219.523438 243.449219 219.074219 242.625 C 218.550781 241.726562 218.398438 240.976562 218.175781 239.773438 C 217.875 237.601562 218.476562 234.074219 218.324219 230.851562 C 218.101562 227.101562 217.5 222.75 216.75 218.398438 C 215.851562 213.75 216 207.449219 213.226562 203.925781 C 210.449219 200.398438 204.601562 196.800781 200.023438 197.324219 C 194.25 198 185.699219 208.273438 182.023438 212.175781 C 180.074219 214.351562 178.199219 216 178.125 217.726562 C 178.050781 219.074219 180 220.273438 180.226562 221.476562 C 180.449219 222.449219 180.300781 223.425781 180 224.324219 C 179.699219 225.226562 179.175781 226.125 178.425781 226.800781 C 177.449219 227.550781 175.800781 228.375 174.449219 228.449219 C 173.101562 228.449219 170.398438 227.101562 170.398438 227.023438 C 170.398438 226.949219 175.5 227.550781 175.574219 228.300781 C 175.726562 229.5 166.726562 231.824219 163.351562 234.449219 C 160.199219 236.925781 157.726562 241.949219 155.625 243.523438 C 154.648438 244.351562 153.976562 244.648438 153 244.800781 C 151.726562 245.023438 149.773438 244.648438 148.648438 244.125 C 147.675781 243.675781 147 242.851562 146.476562 242.023438 C 145.949219 241.199219 145.574219 240.449219 145.574219 239.25 C 145.574219 237.074219 147.148438 233.101562 148.574219 230.023438 C 150.148438 226.648438 154.726562 222.976562 155.023438 219.976562 C 155.25 217.875 153.300781 216.449219 152.851562 214.273438 C 152.398438 211.726562 152.175781 207.824219 152.773438 205.648438 C 153.300781 204.074219 154.125 202.800781 155.175781 201.976562 C 156.300781 201.148438 158.023438 200.699219 159.375 200.851562 C 160.726562 200.925781 162.375 201.75 163.273438 202.726562 C 164.25 203.773438 164.699219 205.050781 164.925781 206.773438 C 165.449219 209.699219 164.925781 215.773438 164.101562 218.851562 C 163.5 220.875 162.675781 222.226562 161.699219 223.726562 C 160.726562 225.300781 158.773438 228.449219 158.023438 228.148438 C 157.125 227.925781 156.976562 220.800781 157.425781 220.648438 C 157.800781 220.574219 159.375 223.125 159.601562 224.476562 C 159.824219 225.824219 159.449219 227.625 158.699219 228.75 C 157.949219 229.949219 156.449219 231 155.175781 231.375 C 153.824219 231.75 151.800781 231.375 150.75 231 C 150.226562 230.773438 149.925781 230.699219 149.550781 230.175781 C 148.726562 229.125 147.449219 226.273438 147.523438 223.648438 C 147.675781 219.523438 151.199219 210.675781 153.449219 208.050781 C 154.5 206.773438 155.625 206.324219 156.824219 206.101562 C 158.023438 205.800781 159.601562 206.023438 160.726562 206.550781 C 161.851562 207.074219 162.976562 208.199219 163.574219 209.324219 C 164.101562 210.375 164.324219 211.949219 164.101562 213.226562 C 163.875 214.425781 162.976562 215.851562 162.226562 216.675781 C 161.699219 217.199219 161.25 217.5 160.574219 217.726562 C 159.523438 218.101562 157.648438 218.25 156.675781 218.101562 C 155.925781 218.023438 155.398438 217.800781 154.800781 217.351562 C 153.976562 216.675781 152.773438 215.25 152.324219 214.273438 C 151.949219 213.601562 151.875 213.074219 151.875 212.324219 C 151.949219 211.273438 152.324219 209.625 153 208.574219 C 153.75 207.523438 154.949219 206.625 156.148438 206.25 C 157.351562 205.875 158.925781 205.875 160.125 206.324219 C 161.25 206.699219 162.523438 207.675781 163.199219 208.726562 C 163.875 209.773438 164.25 210.898438 164.175781 212.550781 C 164.101562 215.625 160.800781 225.523438 159.523438 225.601562 C 158.699219 225.601562 157.273438 220.726562 157.425781 220.648438 C 157.574219 220.574219 158.851562 222.148438 159.226562 223.050781 C 159.523438 223.949219 159.824219 224.925781 159.675781 225.976562 C 159.449219 227.25 158.699219 228.976562 157.726562 229.949219 C 156.75 230.851562 155.023438 231.601562 153.675781 231.601562 C 152.324219 231.675781 150.449219 231.074219 149.550781 230.175781 C 148.726562 229.5 148.425781 228.523438 148.273438 227.25 C 147.976562 225.148438 148.800781 221.175781 149.550781 218.625 C 150.148438 216.375 151.425781 214.800781 151.949219 212.699219 C 152.550781 210.523438 152.101562 207.523438 152.773438 205.648438 C 153.375 204.148438 154.125 202.800781 155.175781 201.976562 C 156.300781 201.148438 158.175781 200.773438 159.375 200.851562 C 160.425781 200.851562 161.398438 201.300781 162.148438 201.824219 C 162.976562 202.351562 163.648438 202.800781 164.175781 203.925781 C 165.449219 206.625 166.351562 215.398438 166.425781 219.148438 C 166.5 221.398438 166.574219 222.226562 165.898438 224.476562 C 164.550781 228.976562 158.851562 240.898438 155.625 243.523438 C 154.199219 244.726562 152.851562 245.023438 151.5 244.949219 C 150.148438 244.875 148.425781 244.050781 147.449219 243.226562 C 146.625 242.550781 146.101562 241.726562 145.875 240.675781 C 145.5 239.476562 145.425781 237.300781 146.023438 236.324219 C 146.625 235.425781 148.199219 235.574219 149.101562 234.675781 C 150.375 233.398438 151.050781 230.25 152.324219 228.449219 C 153.449219 226.875 154.199219 225.675781 156 224.476562 C 158.699219 222.601562 165 221.25 167.925781 219.675781 C 169.800781 218.699219 170.699219 216.976562 172.273438 216.675781 C 174 216.300781 177 217.125 178.125 217.726562 C 178.648438 218.023438 178.800781 218.25 179.101562 218.773438 C 179.625 219.675781 180.375 221.550781 180.300781 222.898438 C 180.148438 224.25 179.398438 225.824219 178.425781 226.800781 C 177.449219 227.699219 175.800781 228.375 174.449219 228.449219 C 173.101562 228.449219 171.300781 227.851562 170.175781 226.800781 C 168.675781 225.523438 167.398438 222.675781 166.949219 220.574219 C 166.5 218.699219 166.800781 216.824219 167.023438 214.875 C 167.324219 212.625 167.625 209.925781 168.75 207.976562 C 169.875 206.023438 172.125 204.300781 174 203.023438 C 175.574219 201.898438 177.449219 201.75 179.023438 200.625 C 180.675781 199.425781 181.800781 197.324219 183.375 195.824219 C 184.949219 194.398438 186.601562 193.273438 188.476562 192 C 190.5 190.648438 192.675781 188.851562 195.074219 187.949219 C 197.398438 187.050781 200.175781 186.300781 202.648438 186.601562 C 205.199219 186.976562 207.675781 189.449219 210.074219 190.273438 C 212.175781 191.023438 214.273438 190.726562 216.148438 191.550781 C 218.023438 192.375 219.75 193.351562 221.175781 195.148438 C 223.125 197.851562 223.949219 202.800781 225.300781 207.148438 C 226.800781 212.25 228.523438 219.601562 229.425781 223.949219 C 229.949219 226.726562 230.324219 228.300781 230.476562 230.851562 C 230.699219 234.148438 231.074219 239.625 230.023438 242.101562 C 229.351562 243.601562 228.148438 244.574219 226.875 245.101562 C 225.601562 245.699219 223.800781 245.773438 222.449219 245.324219 C 221.175781 244.949219 219.824219 243.824219 219.074219 242.625 C 218.175781 241.273438 217.273438 237.824219 217.648438 237.523438 C 218.175781 237.226562 222.824219 241.273438 222.523438 242.023438 C 222.226562 242.773438 218.625 242.925781 216.75 242.398438 C 214.726562 241.800781 212.476562 240.449219 210.675781 238.273438 C 208.050781 234.976562 203.851562 226.800781 204.300781 223.125 C 204.601562 220.726562 206.625 218.699219 208.351562 217.648438 C 210.074219 216.675781 212.699219 216.523438 214.726562 216.75 C 216.523438 216.976562 218.175781 218.101562 219.898438 218.773438 C 221.476562 219.523438 223.5 219.898438 224.699219 221.101562 C 225.824219 222.375 226.726562 224.773438 226.800781 226.273438 C 226.875 227.324219 226.425781 228.300781 225.976562 229.125 C 225.523438 229.875 224.773438 230.699219 223.949219 231.226562 C 223.125 231.675781 222.148438 232.050781 221.175781 232.125 C 220.199219 232.199219 219.148438 231.976562 218.25 231.601562 C 217.425781 231.226562 216.523438 230.699219 215.925781 229.875 C 215.25 228.824219 214.800781 227.625 214.574219 225.75 C 214.273438 222.148438 215.101562 212.625 216.675781 209.550781 C 217.5 207.898438 218.773438 207.074219 219.898438 206.550781 C 220.800781 206.101562 221.851562 206.101562 222.824219 206.175781 C 223.726562 206.25 224.773438 206.550781 225.523438 207.148438 C 226.574219 207.898438 227.476562 209.023438 228.148438 210.675781 C 229.125 213.523438 228.824219 219.074219 229.050781 223.351562 C 229.351562 227.773438 230.25 233.625 229.648438 236.925781 C 229.273438 239.023438 228.976562 240.824219 227.550781 241.800781 C 225.226562 243.300781 218.398438 242.699219 215.175781 242.101562 C 212.925781 241.648438 211.648438 241.125 209.699219 239.851562 C 206.699219 237.75 201.75 232.351562 199.800781 229.273438 C 198.523438 227.25 198.074219 225.675781 197.550781 223.726562 C 197.101562 221.699219 197.101562 220.125 196.949219 217.273438 C 196.800781 211.425781 198.074219 198.675781 197.699219 190.875 C 197.476562 184.726562 196.273438 180.148438 195.898438 174.300781 C 195.449219 167.699219 196.050781 158.101562 195.226562 153.226562 C 194.773438 150.601562 194.398438 149.023438 193.425781 147.300781 C 192.375 145.5 190.726562 143.851562 189.148438 142.648438 C 187.648438 141.601562 185.550781 141.675781 184.273438 140.398438 C 182.699219 138.824219 180.824219 135.375 181.050781 133.425781 C 181.351562 131.773438 183.074219 129.675781 184.800781 129.148438 C 187.199219 128.476562 192.375 130.726562 194.699219 132 C 196.273438 132.898438 197.398438 134.023438 198.148438 135.074219 C 198.75 135.898438 199.050781 136.648438 199.125 137.476562 C 199.273438 138.300781 199.273438 139.199219 198.898438 140.023438 C 198.523438 141.074219 197.398438 142.351562 196.5 142.949219 C 195.75 143.476562 194.925781 143.699219 194.023438 143.699219 C 192.898438 143.625 190.425781 142.425781 190.425781 142.425781 " clip-rule="nonzero"/></clipPath><clipPath id="b845334977"><path d="M 0.421875 0 L 85.78125 0 L 85.78125 116.652344 L 0.421875 116.652344 Z M 0.421875 0 " clip-rule="nonzero"/></clipPath><clipPath id="0e795f9a09"><path d="M 45.425781 13.425781 C 38.675781 7.574219 42.574219 9.226562 43.925781 8.398438 C 45.351562 7.574219 45.050781 3.375 46.476562 2.925781 C 48.199219 2.398438 52.101562 5.324219 54.199219 7.199219 C 56.148438 9 57.574219 11.550781 58.773438 13.875 C 59.898438 16.125 60.574219 17.476562 61.25 20.699219 C 62.824219 27.824219 63.800781 44.773438 64.101562 55.726562 C 64.398438 65.324219 63.425781 75.675781 63.574219 82.949219 C 63.648438 87.824219 62.375 91.949219 64.324219 95.175781 C 66.425781 98.773438 76.476562 100.800781 76.625 103.050781 C 76.773438 104.476562 73.476562 107.25 72.5 106.875 C 70.324219 105.976562 70.324219 85.949219 71.148438 81.898438 C 71.449219 80.550781 71.898438 80.023438 72.5 79.273438 C 73.101562 78.601562 73.925781 77.925781 74.898438 77.550781 C 76.101562 77.175781 78.050781 77.101562 79.25 77.476562 C 80.226562 77.773438 81.050781 78.300781 81.726562 79.125 C 82.476562 80.101562 83.074219 81.300781 83.300781 83.175781 C 83.824219 86.625 82.550781 95.773438 81.574219 98.699219 C 81.125 99.976562 80.824219 100.574219 80.074219 101.25 C 79.175781 102.074219 77.375 102.898438 76.175781 103.125 C 75.125 103.273438 74.226562 103.050781 73.25 102.601562 C 72.199219 102.074219 70.773438 100.726562 70.175781 99.601562 C 69.648438 98.699219 69.425781 96.824219 69.574219 96.75 C 69.875 96.675781 72.949219 101.175781 72.5 101.699219 C 72.050781 102.226562 66.273438 100.273438 66.199219 99.375 C 66.125 98.550781 69.949219 96.148438 71.375 96.523438 C 72.875 96.898438 73.175781 100.875 74.898438 101.699219 C 76.699219 102.675781 80.449219 100.574219 82.101562 101.550781 C 83.523438 102.300781 84.050781 104.699219 84.648438 106.199219 C 85.175781 107.550781 85.550781 108.976562 85.550781 110.175781 C 85.625 111.226562 85.398438 112.199219 85.023438 113.101562 C 84.574219 113.925781 83.976562 114.824219 83.148438 115.351562 C 82.101562 116.101562 80.226562 116.625 78.949219 116.625 C 77.898438 116.625 76.925781 116.25 76.101562 115.726562 C 75.273438 115.199219 74.523438 114.449219 74.074219 113.625 C 73.550781 112.726562 73.398438 111.976562 73.175781 110.773438 C 72.875 108.601562 73.476562 105.074219 73.324219 101.851562 C 73.101562 98.101562 72.5 93.75 71.75 89.398438 C 70.851562 84.75 71 78.449219 68.226562 74.925781 C 65.449219 71.398438 59.601562 67.800781 55.023438 68.324219 C 49.25 69 40.699219 79.273438 37.023438 83.175781 C 35.074219 85.351562 33.199219 87 33.125 88.726562 C 33.050781 90.074219 35 91.273438 35.226562 92.476562 C 35.449219 93.449219 35.300781 94.425781 35 95.324219 C 34.699219 96.226562 34.175781 97.125 33.425781 97.800781 C 32.449219 98.550781 30.800781 99.375 29.449219 99.449219 C 28.101562 99.449219 25.398438 98.101562 25.398438 98.023438 C 25.398438 97.949219 30.5 98.550781 30.574219 99.300781 C 30.726562 100.5 21.726562 102.824219 18.351562 105.449219 C 15.199219 107.925781 12.726562 112.949219 10.625 114.523438 C 9.648438 115.351562 8.976562 115.648438 8 115.800781 C 6.726562 116.023438 4.773438 115.648438 3.648438 115.125 C 2.675781 114.675781 2 113.851562 1.476562 113.023438 C 0.949219 112.199219 0.574219 111.449219 0.574219 110.25 C 0.574219 108.074219 2.148438 104.101562 3.574219 101.023438 C 5.148438 97.648438 9.726562 93.976562 10.023438 90.976562 C 10.25 88.875 8.300781 87.449219 7.851562 85.273438 C 7.398438 82.726562 7.175781 78.824219 7.773438 76.648438 C 8.300781 75.074219 9.125 73.800781 10.175781 72.976562 C 11.300781 72.148438 13.023438 71.699219 14.375 71.851562 C 15.726562 71.925781 17.375 72.75 18.273438 73.726562 C 19.25 74.773438 19.699219 76.050781 19.925781 77.773438 C 20.449219 80.699219 19.925781 86.773438 19.101562 89.851562 C 18.5 91.875 17.675781 93.226562 16.699219 94.726562 C 15.726562 96.300781 13.773438 99.449219 13.023438 99.148438 C 12.125 98.925781 11.976562 91.800781 12.425781 91.648438 C 12.800781 91.574219 14.375 94.125 14.601562 95.476562 C 14.824219 96.824219 14.449219 98.625 13.699219 99.75 C 12.949219 100.949219 11.449219 102 10.175781 102.375 C 8.824219 102.75 6.800781 102.375 5.75 102 C 5.226562 101.773438 4.925781 101.699219 4.550781 101.175781 C 3.726562 100.125 2.449219 97.273438 2.523438 94.648438 C 2.675781 90.523438 6.199219 81.675781 8.449219 79.050781 C 9.5 77.773438 10.625 77.324219 11.824219 77.101562 C 13.023438 76.800781 14.601562 77.023438 15.726562 77.550781 C 16.851562 78.074219 17.976562 79.199219 18.574219 80.324219 C 19.101562 81.375 19.324219 82.949219 19.101562 84.226562 C 18.875 85.425781 17.976562 86.851562 17.226562 87.675781 C 16.699219 88.199219 16.25 88.5 15.574219 88.726562 C 14.523438 89.101562 12.648438 89.25 11.675781 89.101562 C 10.925781 89.023438 10.398438 88.800781 9.800781 88.351562 C 8.976562 87.675781 7.773438 86.25 7.324219 85.273438 C 6.949219 84.601562 6.875 84.074219 6.875 83.324219 C 6.949219 82.273438 7.324219 80.625 8 79.574219 C 8.75 78.523438 9.949219 77.625 11.148438 77.25 C 12.351562 76.875 13.925781 76.875 15.125 77.324219 C 16.25 77.699219 17.523438 78.675781 18.199219 79.726562 C 18.875 80.773438 19.25 81.898438 19.175781 83.550781 C 19.101562 86.625 15.800781 96.523438 14.523438 96.601562 C 13.699219 96.601562 12.273438 91.726562 12.425781 91.648438 C 12.574219 91.574219 13.851562 93.148438 14.226562 94.050781 C 14.523438 94.949219 14.824219 95.925781 14.675781 96.976562 C 14.449219 98.25 13.699219 99.976562 12.726562 100.949219 C 11.75 101.851562 10.023438 102.601562 8.675781 102.601562 C 7.324219 102.675781 5.449219 102.074219 4.550781 101.175781 C 3.726562 100.5 3.425781 99.523438 3.273438 98.25 C 2.976562 96.148438 3.800781 92.175781 4.550781 89.625 C 5.148438 87.375 6.425781 85.800781 6.949219 83.699219 C 7.550781 81.523438 7.101562 78.523438 7.773438 76.648438 C 8.375 75.148438 9.125 73.800781 10.175781 72.976562 C 11.300781 72.148438 13.175781 71.773438 14.375 71.851562 C 15.425781 71.851562 16.398438 72.300781 17.148438 72.824219 C 17.976562 73.351562 18.648438 73.800781 19.175781 74.925781 C 20.449219 77.625 21.351562 86.398438 21.425781 90.148438 C 21.5 92.398438 21.574219 93.226562 20.898438 95.476562 C 19.550781 99.976562 13.851562 111.898438 10.625 114.523438 C 9.199219 115.726562 7.851562 116.023438 6.5 115.949219 C 5.148438 115.875 3.425781 115.050781 2.449219 114.226562 C 1.625 113.550781 1.101562 112.726562 0.875 111.675781 C 0.5 110.476562 0.425781 108.300781 1.023438 107.324219 C 1.625 106.425781 3.199219 106.574219 4.101562 105.675781 C 5.375 104.398438 6.050781 101.25 7.324219 99.449219 C 8.449219 97.875 9.199219 96.675781 11 95.476562 C 13.699219 93.601562 20 92.25 22.925781 90.675781 C 24.800781 89.699219 25.699219 87.976562 27.273438 87.675781 C 29 87.300781 32 88.125 33.125 88.726562 C 33.648438 89.023438 33.800781 89.25 34.101562 89.773438 C 34.625 90.675781 35.375 92.550781 35.300781 93.898438 C 35.148438 95.25 34.398438 96.824219 33.425781 97.800781 C 32.449219 98.699219 30.800781 99.375 29.449219 99.449219 C 28.101562 99.449219 26.300781 98.851562 25.175781 97.800781 C 23.675781 96.523438 22.398438 93.675781 21.949219 91.574219 C 21.5 89.699219 21.800781 87.824219 22.023438 85.875 C 22.324219 83.625 22.625 80.925781 23.75 78.976562 C 24.875 77.023438 27.125 75.300781 29 74.023438 C 30.574219 72.898438 32.449219 72.75 34.023438 71.625 C 35.675781 70.425781 36.800781 68.324219 38.375 66.824219 C 39.949219 65.398438 41.601562 64.273438 43.476562 63 C 45.5 61.648438 47.675781 59.851562 50.074219 58.949219 C 52.398438 58.050781 55.175781 57.300781 57.648438 57.601562 C 60.199219 57.976562 62.675781 60.449219 65.074219 61.273438 C 67.175781 62.023438 69.273438 61.726562 71.148438 62.550781 C 73.023438 63.375 74.75 64.351562 76.175781 66.148438 C 78.125 68.851562 78.949219 73.800781 80.300781 78.148438 C 81.800781 83.25 83.523438 90.601562 84.425781 94.949219 C 84.949219 97.726562 85.324219 99.300781 85.476562 101.851562 C 85.699219 105.148438 86.074219 110.625 85.023438 113.101562 C 84.351562 114.601562 83.148438 115.574219 81.875 116.101562 C 80.601562 116.699219 78.800781 116.773438 77.449219 116.324219 C 76.175781 115.949219 74.824219 114.824219 74.074219 113.625 C 73.175781 112.273438 72.273438 108.824219 72.648438 108.523438 C 73.175781 108.226562 77.824219 112.273438 77.523438 113.023438 C 77.226562 113.773438 73.625 113.925781 71.75 113.398438 C 69.726562 112.800781 67.476562 111.449219 65.675781 109.273438 C 63.050781 105.976562 58.851562 97.800781 59.300781 94.125 C 59.601562 91.726562 61.625 89.699219 63.351562 88.648438 C 65.074219 87.675781 67.699219 87.523438 69.726562 87.75 C 71.523438 87.976562 73.175781 89.101562 74.898438 89.773438 C 76.476562 90.523438 78.5 90.898438 79.699219 92.101562 C 80.824219 93.375 81.726562 95.773438 81.800781 97.273438 C 81.875 98.324219 81.425781 99.300781 80.976562 100.125 C 80.523438 100.875 79.773438 101.699219 78.949219 102.226562 C 78.125 102.675781 77.148438 103.050781 76.175781 103.125 C 75.199219 103.199219 74.148438 102.976562 73.25 102.601562 C 72.425781 102.226562 71.523438 101.699219 70.925781 100.875 C 70.25 99.824219 69.800781 98.625 69.574219 96.75 C 69.273438 93.148438 70.101562 83.625 71.675781 80.550781 C 72.5 78.898438 73.773438 78.074219 74.898438 77.550781 C 75.800781 77.101562 76.851562 77.101562 77.824219 77.175781 C 78.726562 77.25 79.773438 77.550781 80.523438 78.148438 C 81.574219 78.898438 82.476562 80.023438 83.148438 81.675781 C 84.125 84.523438 83.824219 90.074219 84.050781 94.351562 C 84.351562 98.773438 85.25 104.625 84.648438 107.925781 C 84.273438 110.023438 83.976562 111.824219 82.550781 112.800781 C 80.226562 114.300781 73.398438 113.699219 70.175781 113.101562 C 67.925781 112.648438 66.648438 112.125 64.699219 110.851562 C 61.699219 108.75 56.75 103.351562 54.800781 100.273438 C 53.523438 98.25 53.074219 96.675781 52.550781 94.726562 C 52.101562 92.699219 52.101562 91.125 51.949219 88.273438 C 51.800781 82.425781 53.074219 69.675781 52.699219 61.875 C 52.476562 55.726562 51.273438 51.148438 50.898438 45.300781 C 50.449219 38.699219 51.050781 29.101562 50.226562 24.226562 C 49.773438 21.601562 49.398438 20.023438 48.425781 18.300781 C 47.375 16.5 45.726562 14.851562 44.148438 13.648438 C 42.648438 12.601562 40.550781 12.675781 39.273438 11.398438 C 37.699219 9.824219 35.824219 6.375 36.050781 4.425781 C 36.351562 2.773438 38.074219 0.675781 39.800781 0.148438 C 42.199219 -0.523438 47.375 1.726562 49.699219 3 C 51.273438 3.898438 52.398438 5.023438 53.148438 6.074219 C 53.75 6.898438 54.050781 7.648438 54.125 8.476562 C 54.273438 9.300781 54.273438 10.199219 53.898438 11.023438 C 53.523438 12.074219 52.398438 13.351562 51.5 13.949219 C 50.75 14.476562 49.925781 14.699219 49.023438 14.699219 C 47.898438 14.625 45.425781 13.425781 45.425781 13.425781 " clip-rule="nonzero"/></clipPath><clipPath id="35b670f003"><rect x="0" width="86" y="0" height="117"/></clipPath></defs><path fill="#0f0f0f" d="M 137.5 137.5 C 137.5 127.144531 145.894531 118.75 156.25 118.75 L 218.75 118.75 C 229.105469 118.75 237.5 127.144531 237.5 137.5 L 237.5 243.390625 C 237.5 253.820312 225.480469 259.664062 217.277344 253.21875 L 187.5 229.824219 L 157.722656 253.21875 C 149.519531 259.664062 137.5 253.820312 137.5 243.390625 Z M 156.25 131.25 C 152.796875 131.25 150 134.046875 150 137.5 L 150 243.390625 L 187.5 213.925781 L 225 243.390625 L 225 137.5 C 225 134.046875 222.203125 131.25 218.75 131.25 Z M 156.25 131.25 " fill-opacity="1" fill-rule="evenodd"/><g clip-path="url(#6a7fbe74c3)"><g clip-path="url(#c0c8e1c559)"><g transform="matrix(1, 0, 0, 1, 177, 139)"><g clip-path="url(#a533e14694)"><g clip-path="url(#b8494517ad)"><g clip-path="url(#faf6196af1)"><rect x="-259.5" width="540" fill="#1e1e1e" height="539.999987" y="-221.499998" fill-opacity="1"/></g></g></g></g></g></g><g clip-path="url(#5e9a8a5140)"><g clip-path="url(#5bc52b9e7b)"><g transform="matrix(1, 0, 0, 1, 152, 128)"><g clip-path="url(#a07181cde9)"><g clip-path="url(#260e98d24e)"><g clip-path="url(#8f8a1a7604)"><rect x="-234.5" width="540" fill="#0f0f0f" height="539.999987" y="-210.499998" fill-opacity="1"/></g></g></g></g></g></g><g clip-path="url(#cd30f1794b)"><g clip-path="url(#9f67c138db)"><g transform="matrix(1, 0, 0, 1, 140, 124)"><g clip-path="url(#72fa5c6a07)"><g clip-path="url(#30e0558cfd)"><g clip-path="url(#bd1b9bdc4b)"><rect x="-222.5" width="540" fill="#0f0f0f" height="539.999987" y="-206.499998" fill-opacity="1"/></g></g></g></g></g></g><g clip-path="url(#afa53d46a6)"><g clip-path="url(#9c5367a9a7)"><g transform="matrix(1, 0, 0, 1, 145, 129)"><g clip-path="url(#35b670f003)"><g clip-path="url(#b845334977)"><g clip-path="url(#0e795f9a09)"><rect x="-227.5" width="540" fill="#0f0f0f" height="539.999987" y="-211.499998" fill-opacity="1"/></g></g></g></g></g></g></svg>