<svg xmlns="http://www.w3.org/2000/svg" xmlns:xlink="http://www.w3.org/1999/xlink" width="50" zoomAndPan="magnify" viewBox="0 0 37.5 37.499999" height="50" preserveAspectRatio="xMidYMid meet" version="1.0"><defs><clipPath id="9a8101ae01"><path d="M 7.046875 3 L 29.628906 3 L 29.628906 26.660156 L 7.046875 26.660156 Z M 7.046875 3 " clip-rule="nonzero"/></clipPath><clipPath id="3bd6cdaed9"><path d="M 20.058594 5.625 C 22.796875 7.769531 26.496094 11.84375 25.90625 13.027344 C 25.089844 14.507812 15.839844 14.359375 14.433594 13.027344 C 13.617188 12.210938 14.136719 10.511719 14.359375 9.324219 C 14.582031 8.214844 15.171875 7.03125 15.988281 6.070312 C 16.726562 5.179688 17.835938 4.441406 18.875 3.996094 C 19.984375 3.550781 21.316406 3.332031 22.5 3.40625 C 23.683594 3.550781 24.941406 3.996094 25.90625 4.664062 C 26.941406 5.253906 27.902344 6.4375 28.421875 7.328125 C 28.792969 7.917969 29.011719 8.214844 29.085938 9.03125 C 29.234375 10.511719 29.160156 14.136719 27.976562 15.914062 C 26.71875 17.835938 23.832031 19.539062 21.464844 20.132812 C 18.875 20.722656 15.320312 20.28125 12.953125 19.167969 C 10.804688 18.132812 8.660156 15.46875 7.84375 13.988281 C 7.402344 13.25 7.328125 12.65625 7.253906 11.84375 C 7.179688 10.804688 7.105469 9.324219 7.625 8.140625 C 8.214844 6.734375 9.695312 4.8125 11.175781 3.921875 C 12.65625 3.109375 14.949219 2.8125 16.652344 3.183594 C 18.28125 3.550781 20.058594 4.515625 21.242188 6.144531 C 23.09375 8.734375 24.941406 15.394531 24.5 18.429688 C 24.277344 20.355469 22.945312 21.6875 21.832031 23.019531 C 20.722656 24.277344 19.09375 25.535156 17.910156 26.125 C 17.023438 26.496094 16.355469 26.644531 15.394531 26.570312 C 13.988281 26.496094 11.695312 25.757812 10.582031 25.015625 C 9.769531 24.5 9.25 23.980469 8.808594 23.167969 C 8.066406 21.980469 7.402344 19.6875 7.328125 18.355469 C 7.328125 17.394531 7.476562 16.726562 7.84375 15.839844 C 8.4375 14.582031 9.695312 12.804688 11.101562 11.917969 C 12.433594 11.101562 14.65625 10.804688 15.988281 10.804688 C 16.949219 10.804688 17.613281 10.953125 18.429688 11.398438 C 19.613281 12.0625 21.390625 13.46875 22.203125 14.875 C 22.945312 16.207031 23.3125 18.207031 23.09375 19.835938 C 22.796875 21.390625 21.90625 23.167969 20.796875 24.277344 C 19.613281 25.386719 17.761719 26.273438 16.207031 26.496094 C 14.65625 26.71875 12.65625 26.273438 11.25 25.460938 C 9.917969 24.644531 8.585938 23.167969 7.917969 21.6875 C 7.328125 20.207031 6.957031 17.023438 7.625 16.652344 C 8.140625 16.355469 10.878906 19.316406 11.175781 19.019531 C 11.546875 18.652344 7.699219 13.914062 7.253906 11.84375 C 6.957031 10.4375 7.253906 9.324219 7.625 8.140625 C 7.992188 7.03125 8.808594 5.847656 9.695312 5.03125 C 10.511719 4.21875 11.621094 3.480469 12.878906 3.257812 C 14.433594 2.886719 16.949219 3.183594 18.429688 3.773438 C 19.613281 4.292969 20.5 5.179688 21.242188 6.144531 C 21.980469 7.179688 22.945312 9.398438 22.648438 9.621094 C 22.277344 9.917969 18.800781 5.179688 17.46875 5.550781 C 15.988281 5.921875 14.800781 13.101562 14.433594 13.027344 C 14.136719 12.953125 14.210938 9.105469 14.949219 7.625 C 15.691406 6.144531 17.320312 4.589844 18.875 3.996094 C 20.425781 3.332031 22.796875 3.40625 24.277344 3.847656 C 25.535156 4.144531 26.496094 4.8125 27.3125 5.847656 C 28.421875 7.105469 29.234375 9.472656 29.457031 11.546875 C 29.753906 13.691406 29.382812 16.28125 28.71875 18.503906 C 27.976562 20.871094 27.015625 23.980469 25.164062 25.164062 C 23.167969 26.496094 18.800781 27.089844 16.949219 25.90625 C 15.023438 24.792969 15.023438 20.425781 13.691406 18.503906 C 12.582031 16.949219 10.65625 16.355469 9.917969 14.949219 C 9.175781 13.542969 8.957031 11.398438 9.175781 9.992188 C 9.398438 8.808594 9.992188 7.769531 10.730469 6.957031 C 11.472656 6.070312 12.507812 5.328125 13.542969 4.957031 C 14.507812 4.515625 15.765625 4.367188 16.875 4.515625 C 17.984375 4.589844 20.058594 5.625 20.058594 5.625 " clip-rule="nonzero"/></clipPath><clipPath id="5355bdae2e"><path d="M 0.046875 0 L 22.628906 0 L 22.628906 23.660156 L 0.046875 23.660156 Z M 0.046875 0 " clip-rule="nonzero"/></clipPath><clipPath id="683556fed4"><path d="M 13.058594 2.625 C 15.796875 4.769531 19.496094 8.84375 18.90625 10.027344 C 18.089844 11.507812 8.839844 11.359375 7.433594 10.027344 C 6.617188 9.210938 7.136719 7.511719 7.359375 6.324219 C 7.582031 5.214844 8.171875 4.03125 8.988281 3.070312 C 9.726562 2.179688 10.835938 1.441406 11.875 0.996094 C 12.984375 0.550781 14.316406 0.332031 15.5 0.40625 C 16.683594 0.550781 17.941406 0.996094 18.90625 1.664062 C 19.941406 2.253906 20.902344 3.4375 21.421875 4.328125 C 21.792969 4.917969 22.011719 5.214844 22.085938 6.03125 C 22.234375 7.511719 22.160156 11.136719 20.976562 12.914062 C 19.71875 14.835938 16.832031 16.539062 14.464844 17.132812 C 11.875 17.722656 8.320312 17.28125 5.953125 16.167969 C 3.804688 15.132812 1.660156 12.46875 0.84375 10.988281 C 0.402344 10.25 0.328125 9.65625 0.253906 8.84375 C 0.179688 7.804688 0.105469 6.324219 0.625 5.140625 C 1.214844 3.734375 2.695312 1.8125 4.175781 0.921875 C 5.65625 0.109375 7.949219 -0.1875 9.652344 0.183594 C 11.28125 0.550781 13.058594 1.515625 14.242188 3.144531 C 16.09375 5.734375 17.941406 12.394531 17.5 15.429688 C 17.277344 17.355469 15.945312 18.6875 14.832031 20.019531 C 13.722656 21.277344 12.09375 22.535156 10.910156 23.125 C 10.023438 23.496094 9.355469 23.644531 8.394531 23.570312 C 6.988281 23.496094 4.695312 22.757812 3.582031 22.015625 C 2.769531 21.5 2.25 20.980469 1.808594 20.167969 C 1.066406 18.980469 0.402344 16.6875 0.328125 15.355469 C 0.328125 14.394531 0.476562 13.726562 0.84375 12.839844 C 1.4375 11.582031 2.695312 9.804688 4.101562 8.917969 C 5.433594 8.101562 7.65625 7.804688 8.988281 7.804688 C 9.949219 7.804688 10.613281 7.953125 11.429688 8.398438 C 12.613281 9.0625 14.390625 10.46875 15.203125 11.875 C 15.945312 13.207031 16.3125 15.207031 16.09375 16.835938 C 15.796875 18.390625 14.90625 20.167969 13.796875 21.277344 C 12.613281 22.386719 10.761719 23.273438 9.207031 23.496094 C 7.65625 23.71875 5.65625 23.273438 4.25 22.460938 C 2.917969 21.644531 1.585938 20.167969 0.917969 18.6875 C 0.328125 17.207031 -0.0429688 14.023438 0.625 13.652344 C 1.140625 13.355469 3.878906 16.316406 4.175781 16.019531 C 4.546875 15.652344 0.699219 10.914062 0.253906 8.84375 C -0.0429688 7.4375 0.253906 6.324219 0.625 5.140625 C 0.992188 4.03125 1.808594 2.847656 2.695312 2.03125 C 3.511719 1.21875 4.621094 0.480469 5.878906 0.257812 C 7.433594 -0.113281 9.949219 0.183594 11.429688 0.773438 C 12.613281 1.292969 13.5 2.179688 14.242188 3.144531 C 14.980469 4.179688 15.945312 6.398438 15.648438 6.621094 C 15.277344 6.917969 11.800781 2.179688 10.46875 2.550781 C 8.988281 2.921875 7.800781 10.101562 7.433594 10.027344 C 7.136719 9.953125 7.210938 6.105469 7.949219 4.625 C 8.691406 3.144531 10.320312 1.589844 11.875 0.996094 C 13.425781 0.332031 15.796875 0.40625 17.277344 0.847656 C 18.535156 1.144531 19.496094 1.8125 20.3125 2.847656 C 21.421875 4.105469 22.234375 6.472656 22.457031 8.546875 C 22.753906 10.691406 22.382812 13.28125 21.71875 15.503906 C 20.976562 17.871094 20.015625 20.980469 18.164062 22.164062 C 16.167969 23.496094 11.800781 24.089844 9.949219 22.90625 C 8.023438 21.792969 8.023438 17.425781 6.691406 15.503906 C 5.582031 13.949219 3.65625 13.355469 2.917969 11.949219 C 2.175781 10.542969 1.957031 8.398438 2.175781 6.992188 C 2.398438 5.808594 2.992188 4.769531 3.730469 3.957031 C 4.472656 3.070312 5.507812 2.328125 6.542969 1.957031 C 7.507812 1.515625 8.765625 1.367188 9.875 1.515625 C 10.984375 1.589844 13.058594 2.625 13.058594 2.625 " clip-rule="nonzero"/></clipPath><clipPath id="0ddb78a153"><rect x="0" width="23" y="0" height="24"/></clipPath><clipPath id="11707a00a2"><path d="M 7.539062 2.207031 L 11.902344 2.207031 L 11.902344 6.730469 L 7.539062 6.730469 Z M 7.539062 2.207031 " clip-rule="nonzero"/></clipPath><clipPath id="7aa2d6257b"><path d="M 9.84375 5.402344 C 11.25 5.328125 8.882812 4.957031 8.289062 4.515625 C 7.84375 4.144531 7.476562 3.625 7.550781 3.257812 C 7.625 2.886719 8.585938 2.144531 8.957031 2.21875 C 9.324219 2.367188 9.917969 3.699219 9.695312 3.996094 C 9.546875 4.367188 8.4375 4.589844 8.066406 4.367188 C 7.769531 4.144531 7.476562 3.40625 7.625 3.035156 C 7.769531 2.664062 8.511719 2.144531 8.808594 2.21875 C 9.175781 2.367188 9.175781 3.773438 9.546875 3.921875 C 9.84375 4.070312 10.289062 3.40625 10.65625 3.40625 C 11.027344 3.480469 11.472656 3.773438 11.621094 4.070312 C 11.917969 4.589844 11.988281 6.144531 11.621094 6.511719 C 11.398438 6.808594 10.65625 6.734375 10.363281 6.585938 C 10.066406 6.363281 9.84375 5.402344 9.84375 5.402344 " clip-rule="nonzero"/></clipPath><clipPath id="80e5642791"><path d="M 0.539062 0.207031 L 4.902344 0.207031 L 4.902344 4.730469 L 0.539062 4.730469 Z M 0.539062 0.207031 " clip-rule="nonzero"/></clipPath><clipPath id="34b480493c"><path d="M 2.84375 3.402344 C 4.25 3.328125 1.882812 2.957031 1.289062 2.515625 C 0.84375 2.144531 0.476562 1.625 0.550781 1.257812 C 0.625 0.886719 1.585938 0.144531 1.957031 0.21875 C 2.324219 0.367188 2.917969 1.699219 2.695312 1.996094 C 2.546875 2.367188 1.4375 2.589844 1.066406 2.367188 C 0.769531 2.144531 0.476562 1.40625 0.625 1.035156 C 0.769531 0.664062 1.511719 0.144531 1.808594 0.21875 C 2.175781 0.367188 2.175781 1.773438 2.546875 1.921875 C 2.84375 2.070312 3.289062 1.40625 3.65625 1.40625 C 4.027344 1.480469 4.472656 1.773438 4.621094 2.070312 C 4.917969 2.589844 4.988281 4.144531 4.621094 4.511719 C 4.398438 4.808594 3.65625 4.734375 3.363281 4.585938 C 3.066406 4.363281 2.84375 3.402344 2.84375 3.402344 " clip-rule="nonzero"/></clipPath><clipPath id="7770dd27ff"><rect x="0" width="5" y="0" height="5"/></clipPath><clipPath id="614b5e724d"><path d="M 8.527344 3.863281 L 28.121094 3.863281 L 28.121094 16.5625 L 8.527344 16.5625 Z M 8.527344 3.863281 " clip-rule="nonzero"/></clipPath><clipPath id="564a17b76c"><path d="M 11.25 5.773438 C 13.101562 8.957031 13.914062 8.734375 15.097656 8.511719 C 17.613281 8.140625 24.792969 4.589844 26.71875 4.957031 C 27.457031 5.105469 27.902344 5.625 28.050781 6.070312 C 28.199219 6.511719 28.050781 6.957031 27.828125 7.476562 C 27.457031 8.4375 26.199219 10.730469 25.460938 10.878906 C 24.941406 10.953125 24.277344 10.4375 24.054688 9.917969 C 23.683594 9.175781 23.980469 7.550781 24.277344 6.585938 C 24.574219 5.699219 25.164062 4.515625 25.757812 4.144531 C 26.125 3.921875 26.644531 3.921875 26.941406 4.070312 C 27.3125 4.21875 27.605469 4.589844 27.753906 5.03125 C 27.902344 5.476562 27.753906 5.996094 27.53125 6.808594 C 27.238281 8.289062 26.496094 11.621094 25.460938 13.324219 C 24.5 14.730469 22.796875 16.28125 21.90625 16.503906 C 21.464844 16.652344 21.019531 16.429688 20.722656 16.207031 C 20.5 15.988281 20.28125 15.394531 20.355469 15.023438 C 20.355469 14.730469 20.722656 14.210938 21.019531 14.0625 C 21.390625 13.914062 21.980469 13.914062 22.277344 14.136719 C 22.574219 14.433594 22.871094 15.542969 22.722656 15.988281 C 22.5 16.28125 21.613281 16.578125 21.242188 16.503906 C 20.796875 16.355469 20.28125 15.691406 20.355469 15.171875 C 20.355469 14.359375 22.5 13.394531 23.3125 11.988281 C 24.5 10.066406 24.792969 4.957031 25.757812 4.144531 C 26.125 3.847656 26.644531 3.847656 26.941406 4.070312 C 27.386719 4.292969 27.679688 4.957031 27.753906 5.625 C 27.828125 6.734375 27.015625 9.398438 26.421875 10.214844 C 26.199219 10.65625 25.832031 10.953125 25.460938 10.878906 C 25.015625 10.878906 24.128906 10.140625 24.054688 9.546875 C 23.90625 8.808594 25.386719 6.21875 25.609375 6.292969 C 25.757812 6.292969 25.832031 7.328125 25.609375 7.699219 C 25.386719 8.140625 24.792969 8.214844 23.980469 8.511719 C 22.277344 9.175781 17.394531 10.730469 15.097656 11.027344 C 13.765625 11.175781 12.804688 11.25 11.769531 10.804688 C 10.65625 10.289062 9.398438 8.882812 8.882812 7.917969 C 8.585938 7.253906 8.4375 6.511719 8.660156 5.921875 C 8.808594 5.179688 9.621094 4.070312 10.140625 3.921875 C 10.582031 3.847656 11.175781 4.144531 11.324219 4.441406 C 11.546875 4.738281 11.25 5.773438 11.25 5.773438 " clip-rule="nonzero"/></clipPath><clipPath id="031d2c254a"><path d="M 0.527344 0.863281 L 20.121094 0.863281 L 20.121094 13.5625 L 0.527344 13.5625 Z M 0.527344 0.863281 " clip-rule="nonzero"/></clipPath><clipPath id="a0deda2b21"><path d="M 3.25 2.773438 C 5.101562 5.957031 5.914062 5.734375 7.097656 5.511719 C 9.613281 5.140625 16.792969 1.589844 18.71875 1.957031 C 19.457031 2.105469 19.902344 2.625 20.050781 3.070312 C 20.199219 3.511719 20.050781 3.957031 19.828125 4.476562 C 19.457031 5.4375 18.199219 7.730469 17.460938 7.878906 C 16.941406 7.953125 16.277344 7.4375 16.054688 6.917969 C 15.683594 6.175781 15.980469 4.550781 16.277344 3.585938 C 16.574219 2.699219 17.164062 1.515625 17.757812 1.144531 C 18.125 0.921875 18.644531 0.921875 18.941406 1.070312 C 19.3125 1.21875 19.605469 1.589844 19.753906 2.03125 C 19.902344 2.476562 19.753906 2.996094 19.53125 3.808594 C 19.238281 5.289062 18.496094 8.621094 17.460938 10.324219 C 16.5 11.730469 14.796875 13.28125 13.90625 13.503906 C 13.464844 13.652344 13.019531 13.429688 12.722656 13.207031 C 12.5 12.988281 12.28125 12.394531 12.355469 12.023438 C 12.355469 11.730469 12.722656 11.210938 13.019531 11.0625 C 13.390625 10.914062 13.980469 10.914062 14.277344 11.136719 C 14.574219 11.433594 14.871094 12.542969 14.722656 12.988281 C 14.5 13.28125 13.613281 13.578125 13.242188 13.503906 C 12.796875 13.355469 12.28125 12.691406 12.355469 12.171875 C 12.355469 11.359375 14.5 10.394531 15.3125 8.988281 C 16.5 7.066406 16.792969 1.957031 17.757812 1.144531 C 18.125 0.847656 18.644531 0.847656 18.941406 1.070312 C 19.386719 1.292969 19.679688 1.957031 19.753906 2.625 C 19.828125 3.734375 19.015625 6.398438 18.421875 7.214844 C 18.199219 7.65625 17.832031 7.953125 17.460938 7.878906 C 17.015625 7.878906 16.128906 7.140625 16.054688 6.546875 C 15.90625 5.808594 17.386719 3.21875 17.609375 3.292969 C 17.757812 3.292969 17.832031 4.328125 17.609375 4.699219 C 17.386719 5.140625 16.792969 5.214844 15.980469 5.511719 C 14.277344 6.175781 9.394531 7.730469 7.097656 8.027344 C 5.765625 8.175781 4.804688 8.25 3.769531 7.804688 C 2.65625 7.289062 1.398438 5.882812 0.882812 4.917969 C 0.585938 4.253906 0.4375 3.511719 0.660156 2.921875 C 0.808594 2.179688 1.621094 1.070312 2.140625 0.921875 C 2.582031 0.847656 3.175781 1.144531 3.324219 1.441406 C 3.546875 1.738281 3.25 2.773438 3.25 2.773438 " clip-rule="nonzero"/></clipPath><clipPath id="9c76963be1"><rect x="0" width="21" y="0" height="14"/></clipPath><clipPath id="5181da6a50"><path d="M 7.6875 19.0625 L 30.191406 19.0625 L 30.191406 33.90625 L 7.6875 33.90625 Z M 7.6875 19.0625 " clip-rule="nonzero"/></clipPath><clipPath id="0251b79e52"><path d="M 28.792969 21.761719 C 27.605469 30.566406 26.941406 30.492188 26.496094 30.269531 C 25.90625 30.050781 25.3125 29.382812 25.089844 28.644531 C 24.644531 27.386719 24.644531 24.425781 25.089844 23.3125 C 25.3125 22.722656 25.757812 22.128906 26.199219 22.054688 C 26.570312 21.980469 27.164062 22.203125 27.53125 22.722656 C 28.273438 23.980469 28.496094 31.085938 28.125 31.234375 C 27.753906 31.308594 26.941406 26.867188 25.980469 26.347656 C 25.3125 26.050781 24.128906 27.164062 23.535156 26.941406 C 23.167969 26.71875 22.648438 25.757812 22.722656 25.683594 C 22.945312 25.460938 26.421875 27.238281 27.015625 28.273438 C 27.386719 28.9375 27.164062 30.125 26.867188 30.640625 C 26.570312 31.160156 26.050781 31.675781 25.460938 31.605469 C 24.203125 31.382812 20.058594 26.050781 19.910156 24.574219 C 19.835938 23.980469 20.132812 23.386719 20.5 23.167969 C 20.871094 22.945312 21.613281 23.019531 21.980469 23.3125 C 22.574219 23.683594 22.351562 25.386719 22.796875 26.273438 C 23.238281 27.015625 23.90625 28.273438 24.425781 28.199219 C 25.238281 28.050781 26.941406 21.316406 26.421875 20.945312 C 26.199219 20.722656 25.609375 21.613281 24.867188 21.832031 C 23.535156 22.203125 19.464844 21.09375 18.800781 21.761719 C 18.429688 22.054688 18.949219 22.722656 18.726562 23.09375 C 18.429688 23.683594 16.800781 23.90625 16.429688 24.5 C 16.136719 24.867188 16.28125 25.683594 16.0625 25.683594 C 15.914062 25.757812 15.246094 25.015625 15.320312 24.71875 C 15.46875 24.128906 18.355469 23.09375 19.316406 23.167969 C 19.835938 23.238281 20.355469 23.683594 20.5 23.980469 C 20.648438 24.351562 20.648438 24.867188 20.355469 25.164062 C 19.761719 25.832031 17.394531 25.535156 16.0625 26.199219 C 14.65625 27.015625 13.101562 28.570312 12.136719 29.753906 C 11.398438 30.640625 11.175781 32.195312 10.511719 32.417969 C 10.066406 32.566406 9.175781 32.195312 8.882812 31.75 C 8.585938 31.234375 8.882812 30.125 9.03125 29.085938 C 9.25 27.753906 9.546875 25.015625 10.214844 24.425781 C 10.65625 24.054688 11.695312 23.980469 11.84375 24.203125 C 12.0625 24.5 11.175781 26.347656 10.65625 26.570312 C 10.363281 26.71875 9.769531 26.496094 9.472656 26.273438 C 9.25 26.050781 8.957031 25.3125 9.03125 25.164062 C 9.25 24.941406 10.289062 24.867188 10.65625 25.238281 C 11.398438 25.980469 10.953125 31.457031 10.65625 31.53125 C 10.582031 31.53125 10.066406 30.789062 10.140625 30.417969 C 10.140625 30.050781 10.4375 29.753906 10.804688 29.457031 C 11.546875 29.011719 13.691406 29.382812 14.507812 28.496094 C 15.617188 27.3125 14.875 22.648438 15.691406 21.90625 C 15.988281 21.539062 16.578125 21.613281 16.875 21.761719 C 17.246094 21.90625 17.6875 22.425781 17.761719 22.945312 C 17.835938 24.054688 15.023438 27.828125 15.246094 28.050781 C 15.46875 28.199219 16.949219 27.015625 17.320312 26.496094 C 17.613281 26.125 17.835938 25.460938 17.6875 25.3125 C 17.320312 25.089844 14.65625 27.976562 13.394531 28.050781 C 12.582031 28.199219 11.398438 27.753906 11.101562 27.238281 C 10.878906 26.792969 11.101562 25.832031 11.621094 25.3125 C 12.582031 24.425781 16.355469 24.941406 18.058594 24.128906 C 19.390625 23.535156 20.425781 21.539062 21.242188 21.539062 C 21.6875 21.539062 22.425781 22.203125 22.425781 22.574219 C 22.5 22.945312 21.980469 23.683594 21.6875 23.757812 C 21.316406 23.832031 20.28125 23.3125 20.207031 22.945312 C 20.132812 22.574219 20.722656 21.613281 21.09375 21.539062 C 21.464844 21.464844 22.351562 22.054688 22.425781 22.5 C 22.574219 23.238281 20.871094 25.089844 19.910156 25.757812 C 19.019531 26.421875 18.207031 26.496094 17.171875 26.792969 C 15.691406 27.238281 12.878906 28.050781 11.84375 27.753906 C 11.398438 27.605469 11.101562 27.3125 10.953125 26.941406 C 10.878906 26.570312 11.027344 25.757812 11.324219 25.535156 C 11.695312 25.238281 12.582031 25.757812 13.175781 25.535156 C 13.914062 25.238281 14.507812 23.757812 15.394531 23.460938 C 16.429688 23.09375 18.429688 23.238281 19.167969 23.535156 C 19.539062 23.757812 19.761719 23.980469 19.910156 24.425781 C 20.132812 25.238281 19.910156 27.457031 19.167969 28.421875 C 18.28125 29.53125 15.691406 30.492188 14.433594 30.269531 C 13.542969 30.125 12.582031 29.234375 12.359375 28.347656 C 12.0625 27.238281 13.175781 25.015625 13.839844 23.90625 C 14.359375 23.019531 15.023438 22.128906 15.691406 21.90625 C 16.136719 21.6875 16.800781 21.6875 17.171875 21.90625 C 17.46875 22.054688 17.6875 22.425781 17.761719 22.945312 C 17.984375 24.277344 17.910156 28.421875 16.652344 30.050781 C 15.394531 31.605469 11.546875 32.492188 10.214844 32.566406 C 9.546875 32.640625 9.175781 32.640625 8.808594 32.269531 C 8.066406 31.457031 7.625 27.457031 7.699219 25.90625 C 7.84375 24.941406 8.066406 24.203125 8.511719 23.609375 C 8.957031 23.167969 9.695312 22.722656 10.214844 22.722656 C 10.582031 22.722656 11.027344 23.09375 11.324219 23.460938 C 11.621094 23.90625 11.769531 24.941406 11.695312 25.460938 C 11.546875 25.832031 11.324219 26.347656 10.953125 26.421875 C 10.582031 26.570312 9.546875 26.421875 9.324219 26.050781 C 9.03125 25.683594 9.03125 24.792969 9.25 24.203125 C 9.546875 23.460938 10.4375 22.203125 11.101562 22.128906 C 11.621094 21.980469 12.433594 22.425781 12.730469 22.945312 C 13.175781 23.757812 12.878906 25.460938 12.582031 26.792969 C 12.285156 28.496094 11.398438 32.046875 10.511719 32.417969 C 10.066406 32.640625 9.105469 32.195312 8.882812 31.75 C 8.660156 31.308594 8.957031 30.269531 9.472656 29.382812 C 10.214844 27.976562 12.285156 25.460938 14.0625 24.425781 C 15.617188 23.535156 18.207031 22.945312 19.316406 23.167969 C 19.835938 23.3125 20.355469 23.683594 20.5 23.980469 C 20.648438 24.351562 20.574219 24.792969 20.355469 25.164062 C 19.835938 25.90625 17.835938 26.792969 16.726562 27.015625 C 15.839844 27.164062 14.65625 27.164062 14.136719 26.644531 C 13.617188 26.125 13.394531 24.644531 13.765625 23.757812 C 14.210938 22.796875 16.652344 22.054688 17.171875 21.316406 C 17.46875 20.871094 17.246094 20.355469 17.46875 20.058594 C 17.761719 19.761719 18.058594 19.539062 18.726562 19.390625 C 20.355469 19.019531 26.496094 18.949219 27.902344 19.613281 C 28.421875 19.835938 28.570312 20.132812 28.71875 20.574219 C 28.9375 21.242188 28.71875 22.203125 28.496094 23.238281 C 28.273438 24.867188 27.53125 28.273438 26.867188 29.457031 C 26.570312 30.050781 26.347656 30.34375 25.832031 30.566406 C 25.089844 30.863281 23.757812 30.789062 22.871094 30.34375 C 21.6875 29.679688 20.207031 27.457031 19.835938 26.125 C 19.613281 25.238281 19.6875 24.128906 20.058594 23.609375 C 20.425781 23.238281 21.09375 22.945312 21.761719 23.09375 C 22.945312 23.460938 25.3125 26.644531 25.980469 27.828125 C 26.273438 28.421875 26.496094 29.085938 26.273438 29.382812 C 26.050781 29.679688 25.164062 29.605469 24.574219 29.457031 C 23.609375 29.234375 21.6875 28.496094 21.167969 27.753906 C 20.796875 27.238281 20.722656 26.421875 20.945312 25.90625 C 21.167969 25.3125 22.054688 24.71875 22.871094 24.425781 C 23.980469 24.054688 25.90625 23.460938 27.089844 24.128906 C 28.496094 24.941406 29.679688 28.347656 30.050781 30.125 C 30.269531 31.308594 30.199219 32.640625 29.753906 33.230469 C 29.382812 33.75 28.644531 33.898438 27.976562 33.898438 C 27.3125 33.824219 26.273438 33.453125 25.757812 32.566406 C 24.792969 30.9375 24.5 24.941406 25.089844 23.3125 C 25.3125 22.648438 25.757812 22.128906 26.199219 22.054688 C 26.644531 21.980469 27.3125 22.5 27.605469 23.019531 C 28.050781 23.90625 27.3125 25.832031 27.457031 27.164062 C 27.679688 28.496094 28.9375 30.125 28.792969 30.9375 C 28.71875 31.457031 28.273438 31.824219 27.902344 32.046875 C 27.457031 32.195312 26.644531 32.121094 26.273438 31.824219 C 25.90625 31.605469 25.683594 31.234375 25.535156 30.566406 C 25.238281 28.9375 25.757812 22.5 26.644531 21.242188 C 27.015625 20.648438 27.605469 20.425781 27.976562 20.5 C 28.347656 20.574219 28.792969 21.761719 28.792969 21.761719 " clip-rule="nonzero"/></clipPath><clipPath id="4dabf248e7"><path d="M 0.6875 0.0625 L 23.191406 0.0625 L 23.191406 14.90625 L 0.6875 14.90625 Z M 0.6875 0.0625 " clip-rule="nonzero"/></clipPath><clipPath id="b650ea968b"><path d="M 21.792969 2.761719 C 20.605469 11.566406 19.941406 11.492188 19.496094 11.269531 C 18.90625 11.050781 18.3125 10.382812 18.089844 9.644531 C 17.644531 8.386719 17.644531 5.425781 18.089844 4.3125 C 18.3125 3.722656 18.757812 3.128906 19.199219 3.054688 C 19.570312 2.980469 20.164062 3.203125 20.53125 3.722656 C 21.273438 4.980469 21.496094 12.085938 21.125 12.234375 C 20.753906 12.308594 19.941406 7.867188 18.980469 7.347656 C 18.3125 7.050781 17.128906 8.164062 16.535156 7.941406 C 16.167969 7.71875 15.648438 6.757812 15.722656 6.683594 C 15.945312 6.460938 19.421875 8.238281 20.015625 9.273438 C 20.386719 9.9375 20.164062 11.125 19.867188 11.640625 C 19.570312 12.160156 19.050781 12.675781 18.460938 12.605469 C 17.203125 12.382812 13.058594 7.050781 12.910156 5.574219 C 12.835938 4.980469 13.132812 4.386719 13.5 4.167969 C 13.871094 3.945312 14.613281 4.019531 14.980469 4.3125 C 15.574219 4.683594 15.351562 6.386719 15.796875 7.273438 C 16.238281 8.015625 16.90625 9.273438 17.425781 9.199219 C 18.238281 9.050781 19.941406 2.316406 19.421875 1.945312 C 19.199219 1.722656 18.609375 2.613281 17.867188 2.832031 C 16.535156 3.203125 12.464844 2.09375 11.800781 2.761719 C 11.429688 3.054688 11.949219 3.722656 11.726562 4.09375 C 11.429688 4.683594 9.800781 4.90625 9.429688 5.5 C 9.136719 5.867188 9.28125 6.683594 9.0625 6.683594 C 8.914062 6.757812 8.246094 6.015625 8.320312 5.71875 C 8.46875 5.128906 11.355469 4.09375 12.316406 4.167969 C 12.835938 4.238281 13.355469 4.683594 13.5 4.980469 C 13.648438 5.351562 13.648438 5.867188 13.355469 6.164062 C 12.761719 6.832031 10.394531 6.535156 9.0625 7.199219 C 7.65625 8.015625 6.101562 9.570312 5.136719 10.753906 C 4.398438 11.640625 4.175781 13.195312 3.511719 13.417969 C 3.066406 13.566406 2.175781 13.195312 1.882812 12.75 C 1.585938 12.234375 1.882812 11.125 2.03125 10.085938 C 2.25 8.753906 2.546875 6.015625 3.214844 5.425781 C 3.65625 5.054688 4.695312 4.980469 4.84375 5.203125 C 5.0625 5.5 4.175781 7.347656 3.65625 7.570312 C 3.363281 7.71875 2.769531 7.496094 2.472656 7.273438 C 2.25 7.050781 1.957031 6.3125 2.03125 6.164062 C 2.25 5.941406 3.289062 5.867188 3.65625 6.238281 C 4.398438 6.980469 3.953125 12.457031 3.65625 12.53125 C 3.582031 12.53125 3.066406 11.789062 3.140625 11.417969 C 3.140625 11.050781 3.4375 10.753906 3.804688 10.457031 C 4.546875 10.011719 6.691406 10.382812 7.507812 9.496094 C 8.617188 8.3125 7.875 3.648438 8.691406 2.90625 C 8.988281 2.539062 9.578125 2.613281 9.875 2.761719 C 10.246094 2.90625 10.6875 3.425781 10.761719 3.945312 C 10.835938 5.054688 8.023438 8.828125 8.246094 9.050781 C 8.46875 9.199219 9.949219 8.015625 10.320312 7.496094 C 10.613281 7.125 10.835938 6.460938 10.6875 6.3125 C 10.320312 6.089844 7.65625 8.976562 6.394531 9.050781 C 5.582031 9.199219 4.398438 8.753906 4.101562 8.238281 C 3.878906 7.792969 4.101562 6.832031 4.621094 6.3125 C 5.582031 5.425781 9.355469 5.941406 11.058594 5.128906 C 12.390625 4.535156 13.425781 2.539062 14.242188 2.539062 C 14.6875 2.539062 15.425781 3.203125 15.425781 3.574219 C 15.5 3.945312 14.980469 4.683594 14.6875 4.757812 C 14.316406 4.832031 13.28125 4.3125 13.207031 3.945312 C 13.132812 3.574219 13.722656 2.613281 14.09375 2.539062 C 14.464844 2.464844 15.351562 3.054688 15.425781 3.5 C 15.574219 4.238281 13.871094 6.089844 12.910156 6.757812 C 12.019531 7.421875 11.207031 7.496094 10.171875 7.792969 C 8.691406 8.238281 5.878906 9.050781 4.84375 8.753906 C 4.398438 8.605469 4.101562 8.3125 3.953125 7.941406 C 3.878906 7.570312 4.027344 6.757812 4.324219 6.535156 C 4.695312 6.238281 5.582031 6.757812 6.175781 6.535156 C 6.914062 6.238281 7.507812 4.757812 8.394531 4.460938 C 9.429688 4.09375 11.429688 4.238281 12.167969 4.535156 C 12.539062 4.757812 12.761719 4.980469 12.910156 5.425781 C 13.132812 6.238281 12.910156 8.457031 12.167969 9.421875 C 11.28125 10.53125 8.691406 11.492188 7.433594 11.269531 C 6.542969 11.125 5.582031 10.234375 5.359375 9.347656 C 5.0625 8.238281 6.175781 6.015625 6.839844 4.90625 C 7.359375 4.019531 8.023438 3.128906 8.691406 2.90625 C 9.136719 2.6875 9.800781 2.6875 10.171875 2.90625 C 10.46875 3.054688 10.6875 3.425781 10.761719 3.945312 C 10.984375 5.277344 10.910156 9.421875 9.652344 11.050781 C 8.394531 12.605469 4.546875 13.492188 3.214844 13.566406 C 2.546875 13.640625 2.175781 13.640625 1.808594 13.269531 C 1.066406 12.457031 0.625 8.457031 0.699219 6.90625 C 0.84375 5.941406 1.066406 5.203125 1.511719 4.609375 C 1.957031 4.167969 2.695312 3.722656 3.214844 3.722656 C 3.582031 3.722656 4.027344 4.09375 4.324219 4.460938 C 4.621094 4.90625 4.769531 5.941406 4.695312 6.460938 C 4.546875 6.832031 4.324219 7.347656 3.953125 7.421875 C 3.582031 7.570312 2.546875 7.421875 2.324219 7.050781 C 2.03125 6.683594 2.03125 5.792969 2.25 5.203125 C 2.546875 4.460938 3.4375 3.203125 4.101562 3.128906 C 4.621094 2.980469 5.433594 3.425781 5.730469 3.945312 C 6.175781 4.757812 5.878906 6.460938 5.582031 7.792969 C 5.285156 9.496094 4.398438 13.046875 3.511719 13.417969 C 3.066406 13.640625 2.105469 13.195312 1.882812 12.75 C 1.660156 12.308594 1.957031 11.269531 2.472656 10.382812 C 3.214844 8.976562 5.285156 6.460938 7.0625 5.425781 C 8.617188 4.535156 11.207031 3.945312 12.316406 4.167969 C 12.835938 4.3125 13.355469 4.683594 13.5 4.980469 C 13.648438 5.351562 13.574219 5.792969 13.355469 6.164062 C 12.835938 6.90625 10.835938 7.792969 9.726562 8.015625 C 8.839844 8.164062 7.65625 8.164062 7.136719 7.644531 C 6.617188 7.125 6.394531 5.644531 6.765625 4.757812 C 7.210938 3.796875 9.652344 3.054688 10.171875 2.316406 C 10.46875 1.871094 10.246094 1.355469 10.46875 1.058594 C 10.761719 0.761719 11.058594 0.539062 11.726562 0.390625 C 13.355469 0.0195312 19.496094 -0.0507812 20.902344 0.613281 C 21.421875 0.835938 21.570312 1.132812 21.71875 1.574219 C 21.9375 2.242188 21.71875 3.203125 21.496094 4.238281 C 21.273438 5.867188 20.53125 9.273438 19.867188 10.457031 C 19.570312 11.050781 19.347656 11.34375 18.832031 11.566406 C 18.089844 11.863281 16.757812 11.789062 15.871094 11.34375 C 14.6875 10.679688 13.207031 8.457031 12.835938 7.125 C 12.613281 6.238281 12.6875 5.128906 13.058594 4.609375 C 13.425781 4.238281 14.09375 3.945312 14.761719 4.09375 C 15.945312 4.460938 18.3125 7.644531 18.980469 8.828125 C 19.273438 9.421875 19.496094 10.085938 19.273438 10.382812 C 19.050781 10.679688 18.164062 10.605469 17.574219 10.457031 C 16.609375 10.234375 14.6875 9.496094 14.167969 8.753906 C 13.796875 8.238281 13.722656 7.421875 13.945312 6.90625 C 14.167969 6.3125 15.054688 5.71875 15.871094 5.425781 C 16.980469 5.054688 18.90625 4.460938 20.089844 5.128906 C 21.496094 5.941406 22.679688 9.347656 23.050781 11.125 C 23.269531 12.308594 23.199219 13.640625 22.753906 14.230469 C 22.382812 14.75 21.644531 14.898438 20.976562 14.898438 C 20.3125 14.824219 19.273438 14.453125 18.757812 13.566406 C 17.792969 11.9375 17.5 5.941406 18.089844 4.3125 C 18.3125 3.648438 18.757812 3.128906 19.199219 3.054688 C 19.644531 2.980469 20.3125 3.5 20.605469 4.019531 C 21.050781 4.90625 20.3125 6.832031 20.457031 8.164062 C 20.679688 9.496094 21.9375 11.125 21.792969 11.9375 C 21.71875 12.457031 21.273438 12.824219 20.902344 13.046875 C 20.457031 13.195312 19.644531 13.121094 19.273438 12.824219 C 18.90625 12.605469 18.683594 12.234375 18.535156 11.566406 C 18.238281 9.9375 18.757812 3.5 19.644531 2.242188 C 20.015625 1.648438 20.605469 1.425781 20.976562 1.5 C 21.347656 1.574219 21.792969 2.761719 21.792969 2.761719 " clip-rule="nonzero"/></clipPath><clipPath id="aca82e84a0"><rect x="0" width="24" y="0" height="15"/></clipPath><clipPath id="dd0814186b"><path d="M 10.15625 16.148438 L 20.792969 16.148438 L 20.792969 30.976562 L 10.15625 30.976562 Z M 10.15625 16.148438 " clip-rule="nonzero"/></clipPath><clipPath id="a77246c7f5"><path d="M 14.730469 27.089844 C 13.46875 29.976562 12.65625 30.640625 12.0625 30.789062 C 11.546875 30.9375 10.953125 30.9375 10.65625 30.714844 C 10.363281 30.566406 10.140625 30.125 10.214844 29.753906 C 10.289062 28.792969 12.285156 27.238281 13.101562 25.832031 C 13.914062 24.351562 14.0625 22.5 15.023438 21.019531 C 16.0625 19.316406 18.058594 16.355469 19.167969 16.207031 C 19.761719 16.136719 20.574219 16.726562 20.722656 17.171875 C 20.871094 17.761719 20.058594 18.800781 19.539062 19.390625 C 18.949219 19.984375 18.058594 20.722656 17.46875 20.722656 C 16.949219 20.648438 16.28125 20.132812 16.207031 19.613281 C 16.207031 18.949219 18.058594 16.800781 18.875 16.578125 C 19.390625 16.503906 20.058594 16.800781 20.28125 17.097656 C 20.5 17.46875 20.425781 18.355469 20.132812 18.578125 C 19.835938 18.875 18.355469 18.652344 18.132812 18.28125 C 17.984375 17.984375 18.726562 16.652344 19.167969 16.578125 C 19.464844 16.429688 20.207031 17.023438 20.355469 17.320312 C 20.5 17.613281 20.425781 18.058594 20.207031 18.503906 C 19.910156 19.167969 18.503906 20.648438 17.761719 20.648438 C 17.171875 20.722656 16.28125 20.132812 16.207031 19.613281 C 16.136719 18.875 18.058594 16.652344 18.949219 16.28125 C 19.390625 16.0625 19.984375 16.207031 20.28125 16.429688 C 20.574219 16.652344 20.796875 17.023438 20.722656 17.46875 C 20.574219 18.578125 17.761719 20.796875 16.875 22.5 C 15.988281 23.980469 15.839844 25.757812 15.097656 27.089844 C 14.507812 28.273438 13.691406 29.53125 12.878906 30.125 C 12.285156 30.566406 11.398438 31.085938 10.953125 30.863281 C 10.511719 30.714844 10.066406 29.679688 10.214844 29.160156 C 10.4375 28.570312 11.988281 28.273438 12.507812 27.679688 C 12.878906 27.164062 12.804688 26.125 13.25 26.050781 C 13.617188 25.90625 14.730469 27.089844 14.730469 27.089844 " clip-rule="nonzero"/></clipPath><clipPath id="d8a51d332e"><path d="M 0.15625 0.148438 L 10.792969 0.148438 L 10.792969 14.976562 L 0.15625 14.976562 Z M 0.15625 0.148438 " clip-rule="nonzero"/></clipPath><clipPath id="934cc4f0d4"><path d="M 4.730469 11.089844 C 3.46875 13.976562 2.65625 14.640625 2.0625 14.789062 C 1.546875 14.9375 0.953125 14.9375 0.65625 14.714844 C 0.363281 14.566406 0.140625 14.125 0.214844 13.753906 C 0.289062 12.792969 2.285156 11.238281 3.101562 9.832031 C 3.914062 8.351562 4.0625 6.5 5.023438 5.019531 C 6.0625 3.316406 8.058594 0.355469 9.167969 0.207031 C 9.761719 0.136719 10.574219 0.726562 10.722656 1.171875 C 10.871094 1.761719 10.058594 2.800781 9.539062 3.390625 C 8.949219 3.984375 8.058594 4.722656 7.46875 4.722656 C 6.949219 4.648438 6.28125 4.132812 6.207031 3.613281 C 6.207031 2.949219 8.058594 0.800781 8.875 0.578125 C 9.390625 0.503906 10.058594 0.800781 10.28125 1.097656 C 10.5 1.46875 10.425781 2.355469 10.132812 2.578125 C 9.835938 2.875 8.355469 2.652344 8.132812 2.28125 C 7.984375 1.984375 8.726562 0.652344 9.167969 0.578125 C 9.464844 0.429688 10.207031 1.023438 10.355469 1.320312 C 10.5 1.613281 10.425781 2.058594 10.207031 2.503906 C 9.910156 3.167969 8.503906 4.648438 7.761719 4.648438 C 7.171875 4.722656 6.28125 4.132812 6.207031 3.613281 C 6.136719 2.875 8.058594 0.652344 8.949219 0.28125 C 9.390625 0.0625 9.984375 0.207031 10.28125 0.429688 C 10.574219 0.652344 10.796875 1.023438 10.722656 1.46875 C 10.574219 2.578125 7.761719 4.796875 6.875 6.5 C 5.988281 7.980469 5.839844 9.757812 5.097656 11.089844 C 4.507812 12.273438 3.691406 13.53125 2.878906 14.125 C 2.285156 14.566406 1.398438 15.085938 0.953125 14.863281 C 0.511719 14.714844 0.0664062 13.679688 0.214844 13.160156 C 0.4375 12.570312 1.988281 12.273438 2.507812 11.679688 C 2.878906 11.164062 2.804688 10.125 3.25 10.050781 C 3.617188 9.90625 4.730469 11.089844 4.730469 11.089844 " clip-rule="nonzero"/></clipPath><clipPath id="346f309f51"><rect x="0" width="11" y="0" height="15"/></clipPath></defs><path fill="#0f0f0f" d="M 6.167969 6.167969 C 6.167969 3.613281 8.238281 1.542969 10.792969 1.542969 L 26.214844 1.542969 C 28.769531 1.542969 30.839844 3.613281 30.839844 6.167969 L 30.839844 32.292969 C 30.839844 34.867188 27.871094 36.308594 25.851562 34.71875 L 18.503906 28.945312 L 11.15625 34.71875 C 9.132812 36.308594 6.167969 34.867188 6.167969 32.292969 Z M 10.792969 4.625 C 9.941406 4.625 9.25 5.316406 9.25 6.167969 L 9.25 32.292969 L 18.503906 25.023438 L 27.753906 32.292969 L 27.753906 6.167969 C 27.753906 5.316406 27.066406 4.625 26.214844 4.625 Z M 10.792969 4.625 " fill-opacity="1" fill-rule="evenodd"/><g clip-path="url(#9a8101ae01)"><g clip-path="url(#3bd6cdaed9)"><g transform="matrix(1, 0, 0, 1, 7, 3)"><g clip-path="url(#0ddb78a153)"><g clip-path="url(#5355bdae2e)"><g clip-path="url(#683556fed4)"><rect x="-15.25" width="54" fill="#0f0f0f" height="53.999999" y="-11.25" fill-opacity="1"/></g></g></g></g></g></g><g clip-path="url(#11707a00a2)"><g clip-path="url(#7aa2d6257b)"><g transform="matrix(1, 0, 0, 1, 7, 2)"><g clip-path="url(#7770dd27ff)"><g clip-path="url(#80e5642791)"><g clip-path="url(#34b480493c)"><rect x="-15.25" width="54" fill="#0f0f0f" height="53.999999" y="-10.25" fill-opacity="1"/></g></g></g></g></g></g><g clip-path="url(#614b5e724d)"><g clip-path="url(#564a17b76c)"><g transform="matrix(1, 0, 0, 1, 8, 3)"><g clip-path="url(#9c76963be1)"><g clip-path="url(#031d2c254a)"><g clip-path="url(#a0deda2b21)"><rect x="-16.25" width="54" fill="#0f0f0f" height="53.999999" y="-11.25" fill-opacity="1"/></g></g></g></g></g></g><g clip-path="url(#5181da6a50)"><g clip-path="url(#0251b79e52)"><g transform="matrix(1, 0, 0, 1, 7, 19)"><g clip-path="url(#aca82e84a0)"><g clip-path="url(#4dabf248e7)"><g clip-path="url(#b650ea968b)"><rect x="-15.25" width="54" fill="#0f0f0f" height="53.999999" y="-27.25" fill-opacity="1"/></g></g></g></g></g></g><g clip-path="url(#dd0814186b)"><g clip-path="url(#a77246c7f5)"><g transform="matrix(1, 0, 0, 1, 10, 16)"><g clip-path="url(#346f309f51)"><g clip-path="url(#d8a51d332e)"><g clip-path="url(#934cc4f0d4)"><rect x="-18.25" width="54" fill="#0f0f0f" height="53.999999" y="-24.25" fill-opacity="1"/></g></g></g></g></g></g></svg>