<svg xmlns="http://www.w3.org/2000/svg" xmlns:xlink="http://www.w3.org/1999/xlink" width="50" zoomAndPan="magnify" viewBox="0 0 37.5 37.499999" height="50" preserveAspectRatio="xMidYMid meet" version="1.0"><path fill="#0f0f0f" d="M 6.167969 6.167969 C 6.167969 3.613281 8.238281 1.542969 10.792969 1.542969 L 26.214844 1.542969 C 28.769531 1.542969 30.839844 3.613281 30.839844 6.167969 L 30.839844 32.292969 C 30.839844 34.867188 27.871094 36.308594 25.851562 34.71875 L 18.503906 28.945312 L 11.15625 34.71875 C 9.132812 36.308594 6.167969 34.867188 6.167969 32.292969 Z M 10.792969 4.625 C 9.941406 4.625 9.25 5.316406 9.25 6.167969 L 9.25 32.292969 L 18.503906 25.023438 L 27.753906 32.292969 L 27.753906 6.167969 C 27.753906 5.316406 27.066406 4.625 26.214844 4.625 Z M 10.792969 4.625 " fill-opacity="1" fill-rule="evenodd"/></svg>